<svg width="1280" height="1080" viewBox="0 0 1280 1080" fill="none" xmlns="http://www.w3.org/2000/svg">
<g clip-path="url(#clip0_1608_164808)">
<rect opacity="0.68" width="25.6471" height="26.6911" rx="2" transform="matrix(0.894104 -0.59134 0.00820296 0.999966 351.209 375.325)" fill="#B4E7E9"/>
<rect opacity="0.68" width="25.6471" height="26.6911" rx="2" transform="matrix(0.894104 -0.59134 0.00820296 0.999966 246.209 255.326)" fill="#B4E7E9"/>
<rect opacity="0.68" width="22.3216" height="23.2303" rx="2" transform="matrix(0.894104 -0.59134 0.00820296 0.999966 641.71 176.913)" fill="#B4E7E9"/>
<rect opacity="0.3" width="44.5161" height="46.3283" rx="2" transform="matrix(0.894104 -0.59134 0.00820296 0.999966 385.043 794.783)" fill="#DEF3F3"/>
<rect opacity="0.3" width="44.5161" height="46.3283" rx="2" transform="matrix(0.894104 -0.59134 0.00820296 0.999966 280.043 674.784)" fill="#DEF3F3"/>
<path d="M1140.74 909.446C1140.73 908.342 1141.52 906.917 1142.51 906.264L1159.57 894.98C1160.56 894.326 1161.37 894.692 1161.38 895.797L1161.54 915.818C1161.55 916.923 1160.76 918.348 1159.77 919.001L1142.71 930.285C1141.72 930.938 1140.91 930.572 1140.9 929.468L1140.74 909.446Z" fill="#D0EDF6"/>
<path d="M1192.23 807.271C1192.22 806.166 1193.01 804.741 1194 804.088L1202.93 798.183C1203.91 797.53 1204.72 797.896 1204.73 799L1204.81 809.275C1204.82 810.38 1204.03 811.804 1203.04 812.458L1194.11 818.362C1193.13 819.016 1192.32 818.65 1192.31 817.545L1192.23 807.271Z" fill="#D0EDF6" fill-opacity="0.5"/>
<path d="M838.225 242.271C838.216 241.166 839.01 239.741 839.997 239.088L848.925 233.183C849.913 232.53 850.721 232.896 850.73 234L850.814 244.275C850.823 245.38 850.03 246.804 849.042 247.458L840.114 253.362C839.127 254.016 838.319 253.65 838.31 252.545L838.225 242.271Z" fill="#D0EDF6" fill-opacity="0.5"/>
<rect opacity="0.3" width="27.5429" height="28.6641" rx="2" transform="matrix(0.894104 -0.59134 0.00820296 0.999966 139.982 917.3)" fill="#B4E7E9"/>
<rect opacity="0.3" width="33.6879" height="35.0592" rx="2" transform="matrix(0.894104 -0.59134 0.00820296 0.999966 1050.21 287.92)" fill="#B4E7E9"/>
<rect opacity="0.5" width="33.6879" height="35.0592" rx="2" transform="matrix(0.894104 -0.59134 0.00820296 0.999966 72.209 795.921)" fill="#B4E7E9"/>
<rect opacity="0.3" width="33.6879" height="35.0592" rx="2" transform="matrix(0.894104 -0.59134 0.00820296 0.999966 945.209 167.921)" fill="#B4E7E9"/>
<path d="M203.383 761.95L634.042 647.603L1064.7 761.95L634.042 883.387L203.383 761.95Z" fill="#2CBDE9" fill-opacity="0.2"/>
<g filter="url(#filter0_b_1608_164808)">
<path d="M203.382 722.48L634.041 608.133L1064.7 722.48L634.041 843.918L203.382 722.48Z" fill="#2CBDE9" fill-opacity="0.1"/>
</g>
<g filter="url(#filter1_b_1608_164808)">
<path d="M423.392 722.481L634.041 666.55L844.689 722.481L634.04 781.88L423.392 722.481Z" fill="white" fill-opacity="0.5"/>
</g>
<path opacity="0.5" d="M-1.29102 269L206.209 722L630.506 610.096C633.864 609.211 637.394 609.215 640.75 610.108L1061.21 722L1273.21 269H-1.29102Z" fill="url(#paint0_linear_1608_164808)"/>
<path opacity="0.5" d="M0.708984 538L206.209 722L630.506 610.096C633.864 609.211 637.394 609.215 640.75 610.108L1061.21 722L1275.21 538H0.708984Z" fill="url(#paint1_linear_1608_164808)"/>
<path d="M577.299 699.405C579.075 699.405 580.63 699.757 581.964 700.461C583.297 701.165 584.329 702.157 585.06 703.436C585.806 704.7 586.186 706.164 586.2 707.828C586.214 709.476 585.858 710.94 585.132 712.22C584.423 713.5 583.399 714.492 582.06 715.196C580.738 715.9 579.197 716.252 577.437 716.252H571.125L570.987 699.405H577.299ZM577.144 712.7C578.696 712.7 579.9 712.276 580.758 711.428C581.615 710.58 582.037 709.38 582.024 707.828C582.011 706.276 581.569 705.068 580.698 704.204C579.827 703.34 578.616 702.909 577.064 702.909H575.12L575.2 712.7H577.144ZM587.691 709.532C587.68 708.156 587.926 706.948 588.43 705.908C588.949 704.868 589.655 704.068 590.546 703.508C591.437 702.949 592.435 702.669 593.539 702.669C594.483 702.669 595.309 702.861 596.016 703.244C596.739 703.628 597.295 704.132 597.684 704.756L597.669 702.861H601.773L601.883 716.252H597.779L597.763 714.356C597.368 714.98 596.812 715.484 596.095 715.868C595.395 716.252 594.572 716.444 593.628 716.444C592.54 716.444 591.546 716.164 590.645 715.604C589.745 715.028 589.026 714.22 588.489 713.18C587.969 712.124 587.703 710.908 587.691 709.532ZM597.724 709.556C597.715 708.532 597.421 707.724 596.84 707.132C596.275 706.54 595.585 706.244 594.769 706.244C593.953 706.244 593.259 706.54 592.688 707.132C592.133 707.708 591.859 708.508 591.867 709.532C591.876 710.556 592.163 711.372 592.728 711.98C593.308 712.572 594.007 712.868 594.823 712.868C595.639 712.868 596.324 712.572 596.88 711.98C597.451 711.388 597.732 710.58 597.724 709.556ZM612.287 712.772L612.316 716.252H610.228C608.74 716.252 607.577 715.892 606.739 715.172C605.901 714.436 605.475 713.244 605.461 711.596L605.418 706.268H603.786L603.758 702.861H605.39L605.363 699.597H609.467L609.494 702.861H612.182L612.21 706.268H609.522L609.566 711.644C609.569 712.044 609.668 712.332 609.861 712.508C610.054 712.684 610.375 712.772 610.823 712.772H612.287ZM613.731 709.532C613.719 708.156 613.965 706.948 614.469 705.908C614.988 704.868 615.694 704.068 616.585 703.508C617.477 702.949 618.474 702.669 619.578 702.669C620.522 702.669 621.348 702.861 622.055 703.244C622.778 703.628 623.334 704.132 623.723 704.756L623.708 702.861H627.812L627.922 716.252H623.818L623.802 714.356C623.407 714.98 622.851 715.484 622.135 715.868C621.434 716.252 620.611 716.444 619.667 716.444C618.579 716.444 617.585 716.164 616.684 715.604C615.784 715.028 615.065 714.22 614.528 713.18C614.008 712.124 613.742 710.908 613.731 709.532ZM623.763 709.556C623.754 708.532 623.46 707.724 622.879 707.132C622.314 706.54 621.624 706.244 620.808 706.244C619.992 706.244 619.298 706.54 618.727 707.132C618.172 707.708 617.898 708.508 617.907 709.532C617.915 710.556 618.202 711.372 618.767 711.98C619.347 712.572 620.046 712.868 620.862 712.868C621.678 712.868 622.363 712.572 622.919 711.98C623.49 711.388 623.771 710.58 623.763 709.556ZM654.918 699.405L655.057 716.252H650.953L650.87 706.148L647.185 716.252H643.873L639.998 706.124L640.081 716.252H635.977L635.838 699.405H640.686L645.51 711.068L650.094 699.405H654.918ZM659.951 701.469C659.231 701.469 658.637 701.261 658.17 700.845C657.718 700.413 657.49 699.885 657.485 699.261C657.479 698.621 657.699 698.093 658.144 697.677C658.604 697.245 659.194 697.029 659.914 697.029C660.618 697.029 661.196 697.245 661.648 697.677C662.115 698.093 662.351 698.621 662.357 699.261C662.362 699.885 662.134 700.413 661.674 700.845C661.229 701.261 660.655 701.469 659.951 701.469ZM662.002 702.861L662.112 716.252H658.008L657.898 702.861H662.002ZM673.135 702.717C674.703 702.717 675.955 703.228 676.892 704.252C677.844 705.26 678.327 706.652 678.342 708.428L678.406 716.252H674.326L674.266 708.98C674.259 708.084 674.021 707.388 673.553 706.892C673.085 706.396 672.459 706.148 671.675 706.148C670.891 706.148 670.269 706.396 669.809 706.892C669.349 707.388 669.123 708.084 669.13 708.98L669.19 716.252H665.086L664.976 702.861H669.08L669.095 704.636C669.506 704.044 670.062 703.58 670.763 703.244C671.464 702.893 672.255 702.717 673.135 702.717ZM683.201 701.469C682.481 701.469 681.887 701.261 681.42 700.845C680.968 700.413 680.74 699.885 680.735 699.261C680.729 698.621 680.949 698.093 681.394 697.677C681.854 697.245 682.444 697.029 683.164 697.029C683.868 697.029 684.446 697.245 684.898 697.677C685.365 698.093 685.601 698.621 685.607 699.261C685.612 699.885 685.384 700.413 684.924 700.845C684.479 701.261 683.905 701.469 683.201 701.469ZM685.252 702.861L685.362 716.252H681.258L681.148 702.861H685.252ZM696.385 702.717C697.953 702.717 699.205 703.228 700.142 704.252C701.094 705.26 701.577 706.652 701.592 708.428L701.656 716.252H697.576L697.516 708.98C697.509 708.084 697.271 707.388 696.803 706.892C696.335 706.396 695.709 706.148 694.925 706.148C694.141 706.148 693.519 706.396 693.059 706.892C692.599 707.388 692.373 708.084 692.38 708.98L692.44 716.252H688.336L688.226 702.861H692.33L692.345 704.636C692.756 704.044 693.312 703.58 694.013 703.244C694.714 702.893 695.505 702.717 696.385 702.717ZM709.484 702.669C710.428 702.669 711.254 702.861 711.961 703.244C712.684 703.628 713.24 704.132 713.63 704.756L713.614 702.861H717.718L717.828 716.228C717.838 717.46 717.599 718.572 717.111 719.564C716.639 720.572 715.902 721.372 714.899 721.964C713.912 722.556 712.674 722.852 711.186 722.852C709.202 722.852 707.59 722.38 706.35 721.436C705.111 720.508 704.396 719.244 704.207 717.644H708.263C708.396 718.156 708.703 718.556 709.185 718.844C709.668 719.148 710.261 719.3 710.965 719.3C711.813 719.3 712.483 719.052 712.975 718.556C713.483 718.076 713.733 717.3 713.724 716.228L713.708 714.332C713.313 714.956 712.765 715.468 712.065 715.868C711.364 716.252 710.541 716.444 709.597 716.444C708.493 716.444 707.491 716.164 706.591 715.604C705.69 715.028 704.971 714.22 704.435 713.18C703.914 712.124 703.648 710.908 703.637 709.532C703.626 708.156 703.872 706.948 704.375 705.908C704.895 704.868 705.6 704.068 706.491 703.508C707.383 702.949 708.38 702.669 709.484 702.669ZM713.669 709.556C713.661 708.532 713.366 707.724 712.785 707.132C712.22 706.54 711.53 706.244 710.714 706.244C709.898 706.244 709.204 706.54 708.633 707.132C708.078 707.708 707.804 708.508 707.813 709.532C707.821 710.556 708.108 711.372 708.673 711.98C709.254 712.572 709.952 712.868 710.768 712.868C711.584 712.868 712.27 712.572 712.825 711.98C713.396 711.388 713.677 710.58 713.669 709.556Z" fill="#2CBDE9"/>
<rect x="610.26" y="612.253" width="69.5021" height="69.5021" rx="13" fill="url(#paint2_linear_1608_164808)"/>
<path d="M653.744 650.859C653.544 650.37 653.245 649.882 652.752 649.589C652.259 649.296 651.669 649.198 651.18 649.394C650.789 649.491 650.496 649.687 650.204 649.98L648.132 648.71L648.098 644.509L650.051 643.337C650.447 643.728 651.038 644.021 651.627 644.021C652.02 644.021 652.411 643.923 652.704 643.728C653.681 643.142 654.063 641.872 653.465 640.797C652.868 639.821 651.589 639.43 650.515 640.016C650.026 640.309 649.638 640.797 649.544 641.286C649.449 641.677 649.452 642.067 649.552 642.36L647.599 643.533L643.852 641.384L643.834 639.137C644.716 638.942 645.395 638.062 645.387 637.086C645.378 635.913 644.388 634.937 643.211 634.937C642.033 634.937 641.06 635.913 641.069 637.086C641.077 638.062 641.771 638.942 642.656 639.137L642.675 641.384L638.963 643.533L636.991 642.36C637.086 641.97 637.082 641.579 636.982 641.286C636.782 640.797 636.483 640.309 635.99 640.016C635.497 639.723 634.907 639.625 634.418 639.821C633.929 640.016 633.441 640.309 633.15 640.797C632.57 641.774 632.875 643.142 633.96 643.728C634.256 643.923 634.551 644.021 634.943 644.021C635.14 644.021 635.336 644.021 635.433 643.923C635.825 643.826 636.118 643.63 636.41 643.337L638.48 644.509L638.516 648.807L636.562 649.98C636.167 649.589 635.575 649.296 634.987 649.296C634.594 649.296 634.202 649.394 633.91 649.589C632.933 650.175 632.552 651.543 633.148 652.519C633.447 653.008 633.941 653.399 634.432 653.496C634.629 653.594 634.826 653.594 634.924 653.594C635.316 653.594 635.708 653.496 636.001 653.301C636.489 653.008 636.878 652.519 636.972 652.031C637.067 651.64 637.064 651.25 636.963 650.956L638.916 649.784L642.663 651.933L642.682 654.18C641.8 654.375 641.12 655.255 641.128 656.231C641.138 657.404 642.127 658.38 643.305 658.38C644.482 658.38 645.456 657.404 645.446 656.231C645.438 655.255 644.744 654.375 643.859 654.18L643.841 651.933L647.552 649.784L649.525 650.956C649.428 651.152 649.43 651.347 649.431 651.543C649.438 652.324 649.836 653.008 650.526 653.399C650.822 653.594 651.216 653.692 651.608 653.692C651.804 653.692 652.001 653.692 652.098 653.594C652.587 653.399 653.075 653.106 653.366 652.617C653.851 651.933 653.846 651.347 653.744 650.859ZM636.279 651.347C636.28 651.445 636.281 651.543 636.184 651.64C636.088 651.933 635.893 652.129 635.698 652.324C635.406 652.519 635.209 652.519 634.914 652.422C634.619 652.324 634.421 652.129 634.321 651.933C634.023 651.445 634.214 650.761 634.702 650.468C635.093 650.273 635.485 650.273 635.781 650.468C635.978 650.566 636.077 650.663 636.177 650.859C636.179 651.054 636.278 651.152 636.279 651.347ZM643.317 635.913C643.906 635.913 644.4 636.402 644.405 636.988C644.41 637.574 643.923 638.062 643.334 638.062C642.746 638.062 642.251 637.574 642.246 636.988C642.241 636.402 642.728 635.913 643.317 635.913ZM652.673 651.933C652.479 652.226 652.284 652.324 652.088 652.422C651.795 652.519 651.5 652.519 651.303 652.324C651.007 652.129 650.808 651.836 650.805 651.445C650.803 651.25 650.9 651.054 650.997 650.956C651.093 650.761 651.191 650.663 651.386 650.566C651.484 650.468 651.582 650.468 651.68 650.468C651.973 650.37 652.268 650.37 652.466 650.566C652.762 650.761 652.862 650.957 652.962 651.25C652.865 651.347 652.769 651.64 652.673 651.933Z" fill="white"/>
<path d="M643.52 660.627C635.866 660.627 629.631 654.375 629.567 646.56C629.503 638.746 635.635 632.494 643.29 632.494C650.944 632.494 657.178 638.746 657.243 646.56C657.307 654.375 651.175 660.627 643.52 660.627ZM643.549 664.143C653.069 664.143 660.757 656.231 660.677 646.56C660.598 636.89 652.78 628.978 643.261 628.978C633.741 628.978 626.053 636.89 626.133 646.56C626.212 656.231 634.03 664.143 643.549 664.143Z" fill="white"/>
<path d="M654.281 656.328L663.583 665.706L661.149 668.148L651.847 658.77L654.281 656.328Z" fill="white"/>
<g opacity="0.8">
<path fill-rule="evenodd" clip-rule="evenodd" d="M666.001 481.136L644.94 495.223L645.126 517.996L647.562 516.513C648.303 516.089 649.37 516.407 649.802 517.149C650.233 517.89 649.923 518.949 649.181 519.373L645.898 521.28C644.415 522.127 642.5 522.127 641.003 521.28L619.726 508.993C618.229 508.145 617.257 506.451 617.243 504.756L617.045 480.606C617.03 478.805 617.975 477.217 619.458 476.369L640.535 464.188C642.018 463.341 643.933 463.341 645.43 464.188L666.706 476.369C668.203 477.217 669.175 478.911 669.189 480.606L669.222 484.631C669.229 485.478 668.49 486.22 667.639 486.22C666.787 486.22 666.036 485.478 666.029 484.631L666.001 481.136ZM666.141 498.189L666.269 513.76C666.277 514.713 665.538 515.455 664.792 515.349C663.941 515.349 663.19 514.607 663.183 513.76L663.055 498.189L656.089 505.18C655.456 505.816 654.391 505.816 653.748 505.18C653.104 504.545 653.095 503.486 653.729 502.85L662.278 494.27C663.544 492.999 665.566 492.999 666.854 494.27L675.544 502.85C676.187 503.486 676.196 504.545 675.563 505.18C674.93 505.816 673.865 505.816 673.222 505.18L666.141 498.189Z" fill="url(#paint3_linear_1608_164808)"/>
<path opacity="0.5" d="M598.23 504.261L602.269 493.443L590.881 495.354L598.23 504.261ZM631.267 447.04L619.879 445.128L623.918 455.946L631.267 447.04ZM597.737 495.312C596.441 476.802 606.592 459.22 623.27 451.088L622.394 449.29C604.982 457.78 594.389 476.128 595.742 495.451L597.737 495.312Z" fill="#2CBDE9"/>
<path opacity="0.5" d="M675.924 525.683L664.509 527.425L671.725 536.44L675.924 525.683ZM609.846 524.734L613.748 535.602L621.208 526.789L609.846 524.734ZM668.351 530.47C664.406 533.044 659.992 535.046 655.193 536.333L655.71 538.264C660.716 536.923 665.324 534.833 669.444 532.146L668.351 530.47ZM655.193 536.333C641.676 539.954 627.952 537.125 617.285 529.728L616.146 531.372C627.274 539.089 641.602 542.045 655.71 538.264L655.193 536.333Z" fill="#2CBDE9"/>
<path opacity="0.5" d="M655.664 447.09L662.956 456.043L667.064 445.252L655.664 447.09ZM688.331 504.856L695.794 496.044L684.432 493.987L688.331 504.856ZM663.632 451.188C675.001 456.818 683.981 467.121 687.522 480.335L689.453 479.818C685.758 466.025 676.381 455.27 664.52 449.396L663.632 451.188ZM687.522 480.335C688.922 485.563 689.358 490.819 688.938 495.917L690.932 496.081C691.37 490.757 690.914 485.27 689.453 479.818L687.522 480.335Z" fill="#2CBDE9"/>
<path d="M581.642 551.949L581.733 563.021H580.277L580.209 554.765L576.597 563.021H575.573L571.809 554.749L571.877 563.021H570.421L570.33 551.949H571.898L576.069 561.101L580.09 551.949H581.642ZM588.027 563.165C587.206 563.165 586.458 562.978 585.783 562.605C585.118 562.232 584.591 561.704 584.202 561.021C583.822 560.328 583.629 559.528 583.622 558.621C583.614 557.725 583.8 556.936 584.178 556.253C584.567 555.56 585.096 555.032 585.765 554.669C586.434 554.296 587.185 554.109 588.017 554.109C588.849 554.109 589.602 554.296 590.277 554.669C590.952 555.032 591.485 555.554 591.874 556.237C592.275 556.92 592.478 557.714 592.486 558.621C592.493 559.528 592.297 560.328 591.898 561.021C591.508 561.704 590.974 562.232 590.295 562.605C589.615 562.978 588.859 563.165 588.027 563.165ZM588.017 561.885C588.539 561.885 589.029 561.762 589.486 561.517C589.942 561.272 590.307 560.904 590.581 560.413C590.865 559.922 591.004 559.325 590.998 558.621C590.992 557.917 590.848 557.32 590.567 556.829C590.286 556.338 589.92 555.976 589.47 555.741C589.02 555.496 588.534 555.373 588.011 555.373C587.478 555.373 586.988 555.496 586.542 555.741C586.107 555.976 585.758 556.338 585.495 556.829C585.232 557.32 585.104 557.917 585.11 558.621C585.116 559.336 585.249 559.938 585.509 560.429C585.779 560.92 586.134 561.288 586.574 561.533C587.013 561.768 587.494 561.885 588.017 561.885ZM593.856 558.605C593.849 557.709 594.024 556.925 594.381 556.253C594.738 555.57 595.23 555.042 595.856 554.669C596.493 554.296 597.206 554.109 597.995 554.109C598.678 554.109 599.314 554.269 599.903 554.589C600.492 554.898 600.944 555.309 601.257 555.821L601.219 551.181H602.691L602.788 563.021H601.316L601.303 561.373C601.019 561.896 600.596 562.328 600.033 562.669C599.471 563 598.811 563.165 598.053 563.165C597.275 563.165 596.564 562.973 595.921 562.589C595.288 562.205 594.788 561.666 594.419 560.973C594.051 560.28 593.863 559.49 593.856 558.605ZM601.28 558.621C601.275 557.96 601.137 557.384 600.866 556.893C600.595 556.402 600.23 556.029 599.769 555.773C599.319 555.506 598.822 555.373 598.278 555.373C597.734 555.373 597.239 555.501 596.793 555.757C596.347 556.013 595.993 556.386 595.73 556.877C595.467 557.368 595.339 557.944 595.344 558.605C595.35 559.277 595.488 559.864 595.759 560.365C596.029 560.856 596.39 561.234 596.84 561.501C597.29 561.757 597.787 561.885 598.331 561.885C598.875 561.885 599.37 561.757 599.816 561.501C600.272 561.234 600.632 560.856 600.895 560.365C601.157 559.864 601.286 559.282 601.28 558.621ZM613.21 558.301C613.212 558.578 613.199 558.872 613.169 559.181H606.161C606.222 560.045 606.521 560.722 607.058 561.213C607.606 561.693 608.264 561.933 609.032 561.933C609.661 561.933 610.183 561.789 610.596 561.501C611.021 561.202 611.316 560.808 611.483 560.317H613.051C612.823 561.16 612.359 561.848 611.66 562.381C610.96 562.904 610.087 563.165 609.042 563.165C608.21 563.165 607.462 562.978 606.797 562.605C606.144 562.232 605.627 561.704 605.248 561.021C604.869 560.328 604.676 559.528 604.669 558.621C604.661 557.714 604.836 556.92 605.193 556.237C605.55 555.554 606.053 555.032 606.7 554.669C607.359 554.296 608.114 554.109 608.968 554.109C609.8 554.109 610.537 554.291 611.18 554.653C611.823 555.016 612.318 555.517 612.664 556.157C613.022 556.786 613.204 557.501 613.21 558.301ZM611.704 557.997C611.699 557.442 611.572 556.968 611.324 556.573C611.075 556.168 610.737 555.864 610.308 555.661C609.891 555.448 609.426 555.341 608.914 555.341C608.178 555.341 607.55 555.576 607.032 556.045C606.523 556.514 606.235 557.165 606.168 557.997H611.704ZM616.53 551.181L616.627 563.021H615.171L615.074 551.181H616.53ZM628.431 563.133C627.396 563.133 626.45 562.893 625.593 562.413C624.735 561.922 624.053 561.245 623.544 560.381C623.046 559.506 622.793 558.525 622.784 557.437C622.775 556.349 623.012 555.373 623.496 554.509C623.99 553.635 624.662 552.957 625.511 552.477C626.361 551.987 627.303 551.741 628.337 551.741C629.383 551.741 630.334 551.987 631.191 552.477C632.049 552.957 632.726 553.629 633.224 554.493C633.722 555.357 633.975 556.338 633.984 557.437C633.993 558.536 633.756 559.517 633.272 560.381C632.789 561.245 632.122 561.922 631.273 562.413C630.423 562.893 629.476 563.133 628.431 563.133ZM628.42 561.869C629.199 561.869 629.896 561.688 630.512 561.325C631.138 560.962 631.625 560.445 631.971 559.773C632.328 559.101 632.503 558.322 632.496 557.437C632.489 556.541 632.301 555.762 631.933 555.101C631.575 554.429 631.086 553.912 630.464 553.549C629.842 553.187 629.137 553.005 628.348 553.005C627.558 553.005 626.856 553.187 626.24 553.549C625.624 553.912 625.138 554.429 624.781 555.101C624.434 555.762 624.265 556.541 624.272 557.437C624.279 558.322 624.462 559.101 624.819 559.773C625.187 560.445 625.682 560.962 626.304 561.325C626.936 561.688 627.642 561.869 628.42 561.869ZM637.349 555.869C637.633 555.368 638.056 554.952 638.619 554.621C639.192 554.28 639.857 554.109 640.615 554.109C641.393 554.109 642.099 554.296 642.731 554.669C643.374 555.042 643.88 555.57 644.248 556.253C644.617 556.925 644.804 557.709 644.812 558.605C644.819 559.49 644.644 560.28 644.287 560.973C643.93 561.666 643.433 562.205 642.796 562.589C642.17 562.973 641.468 563.165 640.689 563.165C639.942 563.165 639.28 563 638.701 562.669C638.133 562.328 637.697 561.906 637.395 561.405L637.442 567.181H635.986L635.88 554.253H637.336L637.349 555.869ZM643.324 558.605C643.318 557.944 643.18 557.368 642.91 556.877C642.639 556.386 642.273 556.013 641.812 555.757C641.362 555.501 640.865 555.373 640.321 555.373C639.788 555.373 639.293 555.506 638.836 555.773C638.391 556.029 638.031 556.408 637.758 556.909C637.495 557.4 637.366 557.97 637.372 558.621C637.377 559.282 637.515 559.864 637.786 560.365C638.067 560.856 638.433 561.234 638.883 561.501C639.344 561.757 639.841 561.885 640.375 561.885C640.919 561.885 641.414 561.757 641.859 561.501C642.316 561.234 642.675 560.856 642.938 560.365C643.201 559.864 643.329 559.277 643.324 558.605ZM648.478 555.453L648.521 560.621C648.524 561.048 648.617 561.352 648.8 561.533C648.983 561.704 649.298 561.789 649.746 561.789H650.818L650.828 563.021H649.516C648.706 563.021 648.096 562.834 647.688 562.461C647.279 562.088 647.072 561.474 647.065 560.621L647.022 555.453H645.886L645.876 554.253H647.012L646.994 552.045H648.45L648.468 554.253H650.756L650.766 555.453H648.478ZM653.261 552.829C652.984 552.829 652.748 552.733 652.555 552.541C652.361 552.349 652.263 552.115 652.261 551.837C652.259 551.56 652.353 551.325 652.543 551.133C652.733 550.941 652.967 550.845 653.245 550.845C653.511 550.845 653.736 550.941 653.919 551.133C654.113 551.325 654.211 551.56 654.213 551.837C654.215 552.115 654.121 552.349 653.931 552.541C653.751 552.733 653.528 552.829 653.261 552.829ZM653.977 554.253L654.049 563.021H652.593L652.521 554.253H653.977ZM667.001 554.093C667.683 554.093 668.293 554.237 668.828 554.525C669.364 554.802 669.789 555.224 670.103 555.789C670.417 556.354 670.577 557.042 670.584 557.853L670.626 563.021H669.186L669.145 558.061C669.138 557.186 668.914 556.52 668.473 556.061C668.042 555.592 667.459 555.357 666.723 555.357C665.966 555.357 665.365 555.602 664.921 556.093C664.477 556.573 664.259 557.272 664.266 558.189L664.306 563.021H662.866L662.825 558.061C662.818 557.186 662.594 556.52 662.153 556.061C661.722 555.592 661.139 555.357 660.403 555.357C659.646 555.357 659.045 555.602 658.601 556.093C658.157 556.573 657.939 557.272 657.946 558.189L657.986 563.021H656.53L656.458 554.253H657.914L657.924 555.517C658.209 555.058 658.59 554.706 659.068 554.461C659.556 554.216 660.094 554.093 660.681 554.093C661.417 554.093 662.069 554.259 662.637 554.589C663.205 554.92 663.63 555.405 663.913 556.045C664.153 555.426 664.554 554.946 665.117 554.605C665.68 554.264 666.307 554.093 667.001 554.093ZM673.683 552.829C673.405 552.829 673.17 552.733 672.976 552.541C672.783 552.349 672.685 552.115 672.683 551.837C672.68 551.56 672.774 551.325 672.965 551.133C673.155 550.941 673.389 550.845 673.667 550.845C673.933 550.845 674.158 550.941 674.341 551.133C674.534 551.325 674.632 551.56 674.635 551.837C674.637 552.115 674.543 552.349 674.352 552.541C674.173 552.733 673.949 552.829 673.683 552.829ZM674.398 554.253L674.47 563.021H673.014L672.942 554.253H674.398ZM678.03 561.821H682.334L682.344 563.021H676.376L676.366 561.821L680.57 555.437H676.346L676.336 554.253H682.24L682.25 555.437L678.03 561.821ZM683.653 558.605C683.646 557.709 683.82 556.925 684.178 556.253C684.535 555.57 685.026 555.042 685.653 554.669C686.29 554.296 686.997 554.109 687.776 554.109C688.544 554.109 689.212 554.275 689.78 554.605C690.348 554.936 690.773 555.352 691.054 555.853L691.041 554.253H692.513L692.585 563.021H691.113L691.1 561.389C690.816 561.901 690.387 562.328 689.814 562.669C689.252 563 688.592 563.165 687.834 563.165C687.056 563.165 686.35 562.973 685.718 562.589C685.085 562.205 684.585 561.666 684.216 560.973C683.848 560.28 683.66 559.49 683.653 558.605ZM691.077 558.621C691.072 557.96 690.934 557.384 690.663 556.893C690.392 556.402 690.026 556.029 689.566 555.773C689.116 555.506 688.618 555.373 688.074 555.373C687.53 555.373 687.035 555.501 686.59 555.757C686.144 556.013 685.789 556.386 685.527 556.877C685.264 557.368 685.136 557.944 685.141 558.605C685.146 559.277 685.285 559.864 685.555 560.365C685.826 560.856 686.187 561.234 686.637 561.501C687.087 561.757 687.584 561.885 688.128 561.885C688.672 561.885 689.167 561.757 689.613 561.501C690.069 561.234 690.429 560.856 690.691 560.365C690.954 559.864 691.083 559.282 691.077 558.621ZM696.76 555.453L696.802 560.621C696.805 561.048 696.899 561.352 697.081 561.533C697.264 561.704 697.58 561.789 698.028 561.789H699.1L699.11 563.021H697.798C696.987 563.021 696.377 562.834 695.969 562.461C695.561 562.088 695.353 561.474 695.346 560.621L695.304 555.453H694.168L694.158 554.253H695.294L695.276 552.045H696.732L696.75 554.253H699.038L699.048 555.453H696.76ZM701.542 552.829C701.265 552.829 701.029 552.733 700.836 552.541C700.642 552.349 700.544 552.115 700.542 551.837C700.54 551.56 700.634 551.325 700.824 551.133C701.015 550.941 701.249 550.845 701.526 550.845C701.793 550.845 702.017 550.941 702.2 551.133C702.394 551.325 702.492 551.56 702.494 551.837C702.496 552.115 702.402 552.349 702.212 552.541C702.032 552.733 701.809 552.829 701.542 552.829ZM702.258 554.253L702.33 563.021H700.874L700.802 554.253H702.258ZM708.636 563.165C707.815 563.165 707.067 562.978 706.392 562.605C705.727 562.232 705.2 561.704 704.811 561.021C704.432 560.328 704.239 559.528 704.231 558.621C704.224 557.725 704.409 556.936 704.788 556.253C705.177 555.56 705.706 555.032 706.375 554.669C707.044 554.296 707.794 554.109 708.626 554.109C709.458 554.109 710.212 554.296 710.887 554.669C711.562 555.032 712.094 555.554 712.484 556.237C712.884 556.92 713.088 557.714 713.095 558.621C713.103 559.528 712.907 560.328 712.507 561.021C712.118 561.704 711.583 562.232 710.904 562.605C710.224 562.978 709.468 563.165 708.636 563.165ZM708.626 561.885C709.149 561.885 709.638 561.762 710.095 561.517C710.552 561.272 710.917 560.904 711.19 560.413C711.474 559.922 711.613 559.325 711.607 558.621C711.601 557.917 711.458 557.32 711.177 556.829C710.895 556.338 710.53 555.976 710.08 555.741C709.63 555.496 709.143 555.373 708.621 555.373C708.087 555.373 707.598 555.496 707.152 555.741C706.716 555.976 706.367 556.338 706.105 556.829C705.842 557.32 705.713 557.917 705.719 558.621C705.725 559.336 705.858 559.938 706.118 560.429C706.389 560.92 706.744 561.288 707.183 561.533C707.622 561.768 708.103 561.885 708.626 561.885ZM719.244 554.093C720.311 554.093 721.178 554.419 721.844 555.069C722.511 555.709 722.849 556.637 722.859 557.853L722.902 563.021H721.462L721.421 558.061C721.414 557.186 721.19 556.52 720.749 556.061C720.307 555.592 719.708 555.357 718.951 555.357C718.183 555.357 717.571 555.597 717.117 556.077C716.673 556.557 716.454 557.256 716.462 558.173L716.502 563.021H715.046L714.974 554.253H716.43L716.44 555.501C716.724 555.053 717.111 554.706 717.599 554.461C718.099 554.216 718.647 554.093 719.244 554.093Z" fill="#2CBDE9"/>
</g>
<rect x="166.218" y="445.978" width="69.5021" height="69.5021" rx="13" fill="url(#paint4_linear_1608_164808)"/>
<path fill-rule="evenodd" clip-rule="evenodd" d="M217.528 485.933L217.525 485.596L217.319 470.765C217.312 469.922 216.963 468.658 215.599 467.478C214.746 466.72 213.47 466.046 211.942 465.456C208.969 464.36 205.07 463.771 200.922 463.771C196.858 463.771 192.968 464.36 190.014 465.456C188.495 466.046 187.23 466.72 186.39 467.478C185.046 468.742 184.801 469.922 184.808 470.765L184.811 471.102L184.954 478.181L184.955 478.349L184.957 478.518L185.165 493.602C185.171 494.36 185.52 495.624 186.885 496.804C187.737 497.562 189.013 498.237 190.542 498.826C193.514 499.922 197.498 500.512 201.562 500.512C205.625 500.512 209.515 499.922 212.469 498.826C213.988 498.237 215.253 497.562 216.093 496.804C217.438 495.624 217.682 494.444 217.676 493.602L217.531 486.27L217.528 485.933ZM187.834 478.349L187.805 474.894C188.401 475.231 189.081 475.568 189.845 475.821C192.817 476.916 196.802 477.591 201.035 477.591C205.268 477.591 209.242 477.001 212.196 475.821C213.04 475.484 213.714 475.147 214.304 474.81L214.333 478.265C214.337 478.855 213.414 479.866 211.22 480.709C208.604 481.72 204.968 482.31 201.158 482.31C197.348 482.31 193.703 481.72 191.07 480.709C188.947 479.866 187.923 478.939 187.834 478.349ZM188.355 469.669C188.944 469.164 189.871 468.658 191.053 468.237C193.669 467.226 197.221 466.72 200.86 466.636C204.586 466.636 208.146 467.141 210.778 468.152C211.967 468.574 212.903 469.079 213.499 469.585C213.755 469.754 214.181 470.175 214.185 470.596C214.19 471.186 213.267 472.197 211.072 473.04C208.456 474.051 204.821 474.641 201.011 474.641C197.201 474.641 193.556 474.051 190.923 473.04C188.715 472.197 187.861 471.355 187.687 470.765L187.686 470.681C187.683 470.343 188.103 469.922 188.355 469.669L188.355 469.669ZM187.981 486.018L187.953 482.563C188.35 482.787 188.822 483.012 189.294 483.237C189.53 483.349 189.767 483.461 189.993 483.574C192.965 484.669 196.95 485.343 201.183 485.343C205.416 485.343 209.391 484.754 212.344 483.574C213.103 483.237 213.863 482.9 214.452 482.563L214.482 486.186C214.402 486.692 213.478 487.619 211.368 488.461C208.752 489.473 205.116 490.062 201.307 490.062C197.497 490.062 193.851 489.473 191.219 488.461C189.01 487.619 187.986 486.607 187.981 486.018ZM214.044 494.697C213.456 495.203 212.528 495.709 211.347 496.13C208.73 497.057 205.263 497.647 201.453 497.647C197.728 497.647 194.168 497.141 191.535 496.13C190.347 495.709 189.411 495.203 188.815 494.697C188.559 494.529 188.132 494.107 188.129 493.686L188.101 490.231C188.696 490.568 189.46 490.905 190.225 491.242L190.225 491.242C193.198 492.422 197.182 493.012 201.415 493.012C205.649 493.012 209.623 492.422 212.576 491.242C213.42 490.905 214.095 490.568 214.685 490.231L214.713 493.686C214.716 494.023 214.296 494.444 214.044 494.697L214.044 494.697ZM212.093 494.276C212.101 495.203 211.344 495.877 210.498 495.877C209.566 495.877 208.884 495.203 208.876 494.276C208.868 493.349 209.625 492.675 210.471 492.675C211.318 492.675 212.086 493.433 212.093 494.276Z" fill="white"/>
<path d="M208.715 495.814C208.488 495.023 208.488 494.186 208.715 493.395L207.575 492.759L208.744 490.803L209.886 491.439C210.481 490.852 211.23 490.434 212.054 490.229L212.054 488.957H214.392L214.392 490.229C215.228 490.437 215.974 490.861 216.56 491.439L217.701 490.803L218.87 492.759L217.73 493.395C217.958 494.186 217.958 495.023 217.73 495.814L218.87 496.45L217.701 498.407L216.56 497.771C215.974 498.347 215.227 498.773 214.392 498.98L214.392 500.252H212.054L212.054 498.98C211.23 498.775 210.481 498.357 209.886 497.771L208.744 498.407L207.575 496.45L208.715 495.814ZM213.223 496.864C213.843 496.864 214.438 496.626 214.876 496.202C215.315 495.778 215.561 495.204 215.561 494.605C215.561 494.006 215.315 493.431 214.876 493.007C214.438 492.584 213.843 492.346 213.223 492.346C212.603 492.346 212.008 492.584 211.569 493.007C211.131 493.431 210.884 494.006 210.884 494.605C210.884 495.204 211.131 495.778 211.569 496.202C212.008 496.626 212.603 496.864 213.223 496.864Z" fill="white"/>
<path d="M134.132 533.129C135.908 533.129 137.463 533.481 138.797 534.185C140.13 534.889 141.162 535.881 141.893 537.161C142.639 538.425 143.019 539.889 143.033 541.553C143.047 543.201 142.691 544.665 141.965 545.945C141.256 547.225 140.232 548.217 138.893 548.921C137.571 549.625 136.03 549.977 134.27 549.977H127.958L127.82 533.129H134.132ZM133.977 546.425C135.529 546.425 136.733 546.001 137.591 545.153C138.448 544.305 138.87 543.105 138.857 541.553C138.844 540.001 138.402 538.793 137.531 537.929C136.66 537.065 135.449 536.633 133.897 536.633H131.953L132.033 546.425H133.977ZM144.524 543.257C144.513 541.881 144.759 540.673 145.263 539.633C145.782 538.593 146.488 537.793 147.379 537.233C148.27 536.673 149.268 536.393 150.372 536.393C151.316 536.393 152.142 536.585 152.849 536.969C153.572 537.353 154.128 537.857 154.517 538.481L154.502 536.585H158.606L158.716 549.977H154.612L154.596 548.081C154.201 548.705 153.645 549.209 152.928 549.593C152.228 549.977 151.405 550.169 150.461 550.169C149.373 550.169 148.379 549.889 147.478 549.329C146.578 548.753 145.859 547.945 145.322 546.905C144.802 545.849 144.536 544.633 144.524 543.257ZM154.557 543.281C154.548 542.257 154.254 541.449 153.673 540.857C153.108 540.265 152.418 539.969 151.602 539.969C150.786 539.969 150.092 540.265 149.521 540.857C148.966 541.433 148.692 542.233 148.7 543.257C148.709 544.281 148.996 545.097 149.561 545.705C150.141 546.297 150.84 546.593 151.656 546.593C152.472 546.593 153.157 546.297 153.713 545.705C154.284 545.113 154.565 544.305 154.557 543.281ZM169.12 546.497L169.149 549.977H167.061C165.573 549.977 164.41 549.617 163.572 548.897C162.734 548.161 162.308 546.969 162.294 545.321L162.251 539.993H160.619L160.591 536.585H162.223L162.196 533.321H166.3L166.327 536.585H169.015L169.043 539.993H166.355L166.399 545.369C166.402 545.769 166.501 546.057 166.694 546.233C166.887 546.409 167.208 546.497 167.656 546.497H169.12ZM170.564 543.257C170.552 541.881 170.798 540.673 171.302 539.633C171.821 538.593 172.527 537.793 173.418 537.233C174.31 536.673 175.307 536.393 176.411 536.393C177.355 536.393 178.181 536.585 178.888 536.969C179.611 537.353 180.167 537.857 180.556 538.481L180.541 536.585H184.645L184.755 549.977H180.651L180.635 548.081C180.24 548.705 179.684 549.209 178.968 549.593C178.267 549.977 177.444 550.169 176.5 550.169C175.412 550.169 174.418 549.889 173.517 549.329C172.617 548.753 171.898 547.945 171.361 546.905C170.841 545.849 170.575 544.633 170.564 543.257ZM180.596 543.281C180.587 542.257 180.293 541.449 179.712 540.857C179.147 540.265 178.457 539.969 177.641 539.969C176.825 539.969 176.131 540.265 175.56 540.857C175.005 541.433 174.731 542.233 174.74 543.257C174.748 544.281 175.035 545.097 175.6 545.705C176.18 546.297 176.879 546.593 177.695 546.593C178.511 546.593 179.196 546.297 179.752 545.705C180.323 545.113 180.604 544.305 180.596 543.281ZM196.775 533.129L196.914 549.977H192.81L192.671 533.129H196.775ZM216.865 536.441C218.529 536.441 219.853 536.945 220.837 537.953C221.837 538.961 222.345 540.361 222.36 542.153L222.424 549.977H218.344L218.284 542.705C218.277 541.841 218.04 541.177 217.572 540.713C217.12 540.233 216.494 539.993 215.694 539.993C214.894 539.993 214.264 540.233 213.804 540.713C213.36 541.177 213.141 541.841 213.148 542.705L213.208 549.977H209.128L209.068 542.705C209.061 541.841 208.824 541.177 208.356 540.713C207.904 540.233 207.278 539.993 206.478 539.993C205.678 539.993 205.048 540.233 204.588 540.713C204.144 541.177 203.925 541.841 203.932 542.705L203.992 549.977H199.888L199.778 536.585H203.882L203.896 538.265C204.307 537.705 204.848 537.265 205.517 536.945C206.186 536.609 206.945 536.441 207.793 536.441C208.801 536.441 209.699 536.657 210.486 537.089C211.29 537.521 211.919 538.137 212.373 538.937C212.831 538.201 213.458 537.601 214.254 537.137C215.051 536.673 215.921 536.441 216.865 536.441ZM229.304 538.481C229.699 537.857 230.246 537.353 230.947 536.969C231.648 536.585 232.471 536.393 233.415 536.393C234.519 536.393 235.521 536.673 236.422 537.233C237.322 537.793 238.033 538.593 238.553 539.633C239.09 540.673 239.364 541.881 239.375 543.257C239.386 544.633 239.132 545.849 238.613 546.905C238.109 547.945 237.412 548.753 236.521 549.329C235.629 549.889 234.632 550.169 233.528 550.169C232.6 550.169 231.774 549.977 231.051 549.593C230.344 549.209 229.788 548.713 229.383 548.105L229.45 556.36H225.346L225.184 536.585H229.288L229.304 538.481ZM235.199 543.257C235.191 542.233 234.896 541.433 234.315 540.857C233.75 540.265 233.052 539.969 232.22 539.969C231.404 539.969 230.71 540.265 230.139 540.857C229.584 541.449 229.311 542.257 229.319 543.281C229.328 544.305 229.614 545.113 230.179 545.705C230.76 546.297 231.458 546.593 232.274 546.593C233.09 546.593 233.784 546.297 234.355 545.705C234.926 545.097 235.207 544.281 235.199 543.257ZM247.681 550.169C246.369 550.169 245.182 549.889 244.122 549.329C243.077 548.769 242.247 547.969 241.63 546.929C241.03 545.889 240.724 544.673 240.712 543.281C240.701 541.905 240.995 540.697 241.594 539.657C242.194 538.601 243.019 537.793 244.071 537.233C245.122 536.673 246.304 536.393 247.616 536.393C248.928 536.393 250.114 536.673 251.175 537.233C252.235 537.793 253.074 538.601 253.69 539.657C254.307 540.697 254.621 541.905 254.632 543.281C254.643 544.657 254.341 545.873 253.726 546.929C253.127 547.969 252.293 548.769 251.226 549.329C250.174 549.889 248.993 550.169 247.681 550.169ZM247.652 546.617C248.436 546.617 249.097 546.329 249.636 545.753C250.192 545.177 250.465 544.353 250.456 543.281C250.447 542.209 250.169 541.385 249.62 540.809C249.087 540.233 248.429 539.945 247.645 539.945C246.845 539.945 246.183 540.233 245.66 540.809C245.137 541.369 244.879 542.193 244.888 543.281C244.897 544.353 245.16 545.177 245.676 545.753C246.209 546.329 246.868 546.617 247.652 546.617ZM260.877 538.817C261.351 538.081 261.946 537.505 262.663 537.089C263.379 536.657 264.177 536.441 265.057 536.441L265.093 540.785H263.965C262.941 540.785 262.175 541.009 261.666 541.457C261.158 541.889 260.908 542.657 260.917 543.761L260.968 549.977H256.864L256.755 536.585H260.859L260.877 538.817ZM274.565 546.497L274.594 549.977H272.506C271.018 549.977 269.855 549.617 269.017 548.897C268.179 548.161 267.753 546.969 267.74 545.321L267.696 539.993H266.064L266.036 536.585H267.668L267.641 533.321H271.745L271.772 536.585H274.46L274.488 539.993H271.8L271.844 545.369C271.847 545.769 271.946 546.057 272.139 546.233C272.333 546.409 272.653 546.497 273.101 546.497H274.565Z" fill="#2CBDE9"/>
<path d="M1059.76 533.373C1061.53 533.373 1063.09 533.725 1064.42 534.429C1065.76 535.133 1066.79 536.125 1067.52 537.405C1068.27 538.669 1068.65 540.133 1068.66 541.797C1068.67 543.445 1068.32 544.909 1067.59 546.189C1066.88 547.469 1065.86 548.461 1064.52 549.165C1063.2 549.869 1061.66 550.221 1059.9 550.221H1053.58L1053.45 533.373H1059.76ZM1059.6 546.669C1061.15 546.669 1062.36 546.245 1063.22 545.397C1064.07 544.549 1064.5 543.349 1064.48 541.797C1064.47 540.245 1064.03 539.037 1063.16 538.173C1062.29 537.309 1061.07 536.877 1059.52 536.877H1057.58L1057.66 546.669H1059.6ZM1083.59 543.309C1083.59 543.693 1083.57 544.093 1083.53 544.509H1074.24C1074.31 545.341 1074.58 545.981 1075.05 546.429C1075.53 546.861 1076.12 547.077 1076.8 547.077C1077.83 547.077 1078.54 546.645 1078.93 545.781H1083.3C1083.08 546.661 1082.68 547.453 1082.09 548.157C1081.52 548.861 1080.8 549.413 1079.92 549.813C1079.05 550.213 1078.06 550.413 1076.98 550.413C1075.66 550.413 1074.49 550.133 1073.46 549.573C1072.44 549.013 1071.63 548.213 1071.04 547.173C1070.46 546.133 1070.16 544.917 1070.15 543.525C1070.14 542.133 1070.41 540.917 1070.96 539.877C1071.53 538.837 1072.32 538.037 1073.34 537.477C1074.36 536.917 1075.53 536.637 1076.86 536.637C1078.16 536.637 1079.31 536.909 1080.32 537.453C1081.34 537.997 1082.13 538.773 1082.7 539.781C1083.28 540.789 1083.58 541.965 1083.59 543.309ZM1079.38 542.229C1079.37 541.525 1079.13 540.965 1078.65 540.549C1078.16 540.133 1077.56 539.925 1076.84 539.925C1076.15 539.925 1075.57 540.125 1075.09 540.525C1074.63 540.925 1074.35 541.493 1074.24 542.229H1079.38ZM1091.8 546.381L1094.63 536.829H1099L1094.35 550.221H1089.29L1084.43 536.829H1088.82L1091.8 546.381ZM1102.78 535.437C1102.06 535.437 1101.46 535.229 1101 534.813C1100.54 534.381 1100.32 533.853 1100.31 533.229C1100.31 532.589 1100.53 532.061 1100.97 531.645C1101.43 531.213 1102.02 530.997 1102.74 530.997C1103.44 530.997 1104.02 531.213 1104.47 531.645C1104.94 532.061 1105.18 532.589 1105.18 533.229C1105.19 533.853 1104.96 534.381 1104.5 534.813C1104.06 535.229 1103.48 535.437 1102.78 535.437ZM1104.83 536.829L1104.94 550.221H1100.83L1100.72 536.829H1104.83ZM1107.04 543.525C1107.03 542.133 1107.3 540.917 1107.85 539.877C1108.42 538.837 1109.2 538.037 1110.21 537.477C1111.23 536.917 1112.39 536.637 1113.7 536.637C1115.38 536.637 1116.79 537.077 1117.92 537.957C1119.06 538.837 1119.81 540.077 1120.18 541.677H1115.81C1115.43 540.653 1114.72 540.141 1113.66 540.141C1112.91 540.141 1112.31 540.437 1111.87 541.029C1111.43 541.605 1111.21 542.437 1111.22 543.525C1111.23 544.613 1111.46 545.453 1111.91 546.045C1112.36 546.621 1112.97 546.909 1113.72 546.909C1114.77 546.909 1115.48 546.397 1115.84 545.373H1120.21C1119.87 546.941 1119.14 548.173 1118.01 549.069C1116.88 549.965 1115.48 550.413 1113.82 550.413C1112.51 550.413 1111.34 550.133 1110.31 549.573C1109.29 549.013 1108.5 548.213 1107.91 547.173C1107.34 546.133 1107.05 544.917 1107.04 543.525ZM1135.01 543.309C1135.01 543.693 1134.99 544.093 1134.95 544.509H1125.66C1125.73 545.341 1126 545.981 1126.47 546.429C1126.95 546.861 1127.54 547.077 1128.23 547.077C1129.25 547.077 1129.96 546.645 1130.35 545.781H1134.72C1134.5 546.661 1134.1 547.453 1133.51 548.157C1132.94 548.861 1132.22 549.413 1131.34 549.813C1130.47 550.213 1129.49 550.413 1128.4 550.413C1127.09 550.413 1125.91 550.133 1124.89 549.573C1123.86 549.013 1123.05 548.213 1122.47 547.173C1121.88 546.133 1121.58 544.917 1121.57 543.525C1121.56 542.133 1121.83 540.917 1122.38 539.877C1122.95 538.837 1123.74 538.037 1124.76 537.477C1125.78 536.917 1126.96 536.637 1128.28 536.637C1129.58 536.637 1130.73 536.909 1131.75 537.453C1132.76 537.997 1133.55 538.773 1134.12 539.781C1134.7 540.789 1135 541.965 1135.01 543.309ZM1130.8 542.229C1130.8 541.525 1130.55 540.965 1130.07 540.549C1129.58 540.133 1128.98 539.925 1128.26 539.925C1127.58 539.925 1126.99 540.125 1126.52 540.525C1126.06 540.925 1125.77 541.493 1125.67 542.229H1130.8Z" fill="#2CBDE9"/>
<rect x="1059.71" y="446.179" width="69.5021" height="69.5021" rx="13" fill="url(#paint5_linear_1608_164808)"/>
<g clip-path="url(#clip1_1608_164808)">
<mask id="path-35-inside-1_1608_164808" fill="white">
<rect x="1072.06" y="465.389" width="37.674" height="30.4036" rx="3"/>
</mask>
<rect x="1072.06" y="465.389" width="37.674" height="30.4036" rx="3" stroke="white" stroke-width="8" mask="url(#path-35-inside-1_1608_164808)"/>
<path d="M1108.76 474.482L1113.67 472.698C1114.32 472.461 1115.01 472.944 1115.01 473.638L1115.01 487.544C1115.01 488.238 1114.32 488.721 1113.67 488.483L1108.76 486.7C1108.36 486.556 1108.1 486.18 1108.1 485.76L1108.1 475.421C1108.1 475.001 1108.36 474.625 1108.76 474.482Z" stroke="white" stroke-width="4"/>
<circle cx="1083.3" cy="476.625" r="3.30474" stroke="white" stroke-width="4"/>
</g>
<path fill-rule="evenodd" clip-rule="evenodd" d="M1032.36 472.907L1040.32 480.862C1040.81 481.35 1040.81 482.142 1040.32 482.63L1032.36 490.585C1031.88 491.073 1031.08 491.073 1030.6 490.585C1030.11 490.097 1030.11 489.305 1030.6 488.817L1036.42 482.996H898.451L885.951 488.963L885.951 474.529L898.451 480.496H1036.42L1030.6 474.675C1030.11 474.187 1030.11 473.395 1030.6 472.907C1031.08 472.419 1031.88 472.419 1032.36 472.907Z" fill="#63C7E7"/>
<path fill-rule="evenodd" clip-rule="evenodd" d="M401.439 472.907L409.393 480.862C409.882 481.35 409.882 482.142 409.393 482.63L401.439 490.585C400.95 491.073 400.159 491.073 399.671 490.585C399.183 490.097 399.183 489.305 399.671 488.817L405.492 482.996H267.526L255.026 488.963L255.026 474.529L267.526 480.496H405.492L399.671 474.675C399.183 474.187 399.183 473.395 399.671 472.907C400.159 472.419 400.95 472.419 401.439 472.907Z" fill="#63C7E7"/>
<path d="M901.119 451.091L901.21 462.21H899.386L899.324 454.595L895.994 462.21H894.73L891.26 454.595L891.322 462.21H889.498L889.407 451.091H891.375L895.35 459.81L899.167 451.091H901.119ZM907.433 462.354C906.601 462.354 905.847 462.168 905.172 461.794C904.497 461.41 903.964 460.877 903.575 460.194C903.185 459.501 902.987 458.701 902.979 457.794C902.972 456.899 903.163 456.104 903.552 455.411C903.941 454.717 904.475 454.184 905.155 453.811C905.834 453.437 906.595 453.251 907.438 453.251C908.281 453.251 909.045 453.437 909.731 453.811C910.416 454.184 910.959 454.717 911.36 455.411C911.76 456.104 911.964 456.899 911.971 457.794C911.979 458.69 911.782 459.485 911.383 460.178C910.983 460.872 910.433 461.41 909.732 461.794C909.042 462.168 908.275 462.354 907.433 462.354ZM907.42 460.77C907.889 460.77 908.325 460.658 908.729 460.434C909.143 460.21 909.476 459.874 909.729 459.426C909.981 458.978 910.104 458.434 910.099 457.794C910.094 457.155 909.967 456.616 909.718 456.179C909.469 455.731 909.141 455.395 908.734 455.171C908.326 454.947 907.888 454.835 907.419 454.835C906.95 454.835 906.513 454.947 906.11 455.171C905.717 455.395 905.405 455.731 905.174 456.179C904.943 456.616 904.83 457.155 904.835 457.794C904.843 458.744 905.089 459.48 905.573 460.002C906.068 460.514 906.684 460.77 907.42 460.77ZM913.166 457.762C913.159 456.877 913.334 456.093 913.691 455.411C914.058 454.728 914.555 454.2 915.182 453.827C915.819 453.443 916.526 453.251 917.305 453.251C917.881 453.251 918.447 453.379 919.004 453.635C919.572 453.88 920.022 454.211 920.356 454.627L920.321 450.371H922.161L922.259 462.21H920.419L920.408 460.882C920.112 461.309 919.699 461.661 919.168 461.938C918.648 462.216 918.046 462.354 917.364 462.354C916.596 462.354 915.89 462.162 915.247 461.778C914.614 461.384 914.109 460.84 913.73 460.146C913.361 459.442 913.173 458.648 913.166 457.762ZM920.382 457.794C920.377 457.187 920.245 456.659 919.985 456.211C919.736 455.763 919.408 455.421 919.001 455.187C918.594 454.952 918.155 454.835 917.686 454.835C917.217 454.835 916.78 454.952 916.377 455.187C915.973 455.411 915.646 455.747 915.393 456.195C915.151 456.632 915.033 457.155 915.038 457.762C915.043 458.37 915.17 458.904 915.419 459.362C915.679 459.821 916.012 460.173 916.42 460.418C916.838 460.653 917.276 460.77 917.735 460.77C918.204 460.77 918.64 460.653 919.044 460.418C919.447 460.184 919.77 459.842 920.011 459.394C920.264 458.936 920.387 458.402 920.382 457.794ZM932.696 457.586C932.699 457.917 932.68 458.216 932.64 458.482H925.904C925.963 459.186 926.229 459.752 926.702 460.178C927.174 460.605 927.752 460.818 928.435 460.818C929.416 460.818 930.106 460.408 930.505 459.586H932.473C932.213 460.397 931.733 461.064 931.033 461.586C930.344 462.098 929.482 462.354 928.447 462.354C927.605 462.354 926.846 462.168 926.171 461.794C925.506 461.41 924.979 460.877 924.59 460.194C924.211 459.501 924.018 458.701 924.01 457.794C924.003 456.888 924.177 456.093 924.535 455.411C924.902 454.717 925.415 454.184 926.073 453.811C926.742 453.437 927.509 453.251 928.373 453.251C929.205 453.251 929.948 453.432 930.601 453.795C931.255 454.157 931.766 454.669 932.134 455.331C932.502 455.981 932.689 456.733 932.696 457.586ZM930.788 457.011C930.771 456.339 930.527 455.8 930.054 455.395C929.582 454.989 928.999 454.787 928.305 454.787C927.676 454.787 927.139 454.989 926.694 455.395C926.25 455.789 925.987 456.328 925.908 457.011H930.788ZM936.256 450.371L936.353 462.21H934.529L934.432 450.371H936.256ZM946.445 451.091C947.629 451.091 948.666 451.32 949.555 451.779C950.454 452.227 951.148 452.877 951.635 453.731C952.132 454.573 952.386 455.56 952.395 456.691C952.404 457.821 952.167 458.802 951.683 459.634C951.21 460.466 950.527 461.106 949.635 461.554C948.753 461.992 947.72 462.21 946.536 462.21H942.904L942.813 451.091H946.445ZM946.524 460.722C947.825 460.722 948.82 460.37 949.507 459.666C950.195 458.962 950.534 457.97 950.523 456.691C950.512 455.4 950.157 454.392 949.458 453.667C948.759 452.941 947.759 452.579 946.457 452.579H944.649L944.716 460.722H946.524ZM962.29 457.586C962.293 457.917 962.274 458.216 962.233 458.482H955.497C955.557 459.186 955.823 459.752 956.295 460.178C956.768 460.605 957.346 460.818 958.029 460.818C959.01 460.818 959.7 460.408 960.099 459.586H962.067C961.807 460.397 961.327 461.064 960.627 461.586C959.938 462.098 959.076 462.354 958.041 462.354C957.199 462.354 956.44 462.168 955.765 461.794C955.1 461.41 954.573 460.877 954.184 460.194C953.804 459.501 953.611 458.701 953.604 457.794C953.596 456.888 953.771 456.093 954.128 455.411C954.496 454.717 955.009 454.184 955.667 453.811C956.336 453.437 957.103 453.251 957.967 453.251C958.799 453.251 959.541 453.432 960.195 453.795C960.849 454.157 961.36 454.669 961.728 455.331C962.096 455.981 962.283 456.733 962.29 457.586ZM960.381 457.011C960.365 456.339 960.121 455.8 959.648 455.395C959.175 454.989 958.592 454.787 957.899 454.787C957.27 454.787 956.733 454.989 956.288 455.395C955.843 455.789 955.581 456.328 955.501 457.011H960.381ZM965.885 454.691C966.191 454.285 966.61 453.944 967.141 453.667C967.672 453.389 968.274 453.251 968.946 453.251C969.714 453.251 970.414 453.443 971.046 453.827C971.689 454.2 972.195 454.728 972.563 455.411C972.932 456.093 973.119 456.877 973.127 457.762C973.134 458.648 972.959 459.442 972.602 460.146C972.245 460.84 971.748 461.384 971.112 461.778C970.485 462.162 969.788 462.354 969.02 462.354C968.348 462.354 967.75 462.221 967.225 461.954C966.7 461.677 966.271 461.336 965.937 460.93L965.981 466.402H964.157L964.051 453.395H965.875L965.885 454.691ZM971.271 457.762C971.266 457.155 971.133 456.632 970.874 456.195C970.625 455.747 970.291 455.411 969.873 455.187C969.466 454.952 969.028 454.835 968.559 454.835C968.1 454.835 967.664 454.952 967.249 455.187C966.846 455.421 966.518 455.763 966.266 456.211C966.024 456.659 965.906 457.187 965.911 457.794C965.916 458.402 966.043 458.936 966.292 459.394C966.552 459.842 966.885 460.184 967.292 460.418C967.71 460.653 968.149 460.77 968.607 460.77C969.077 460.77 969.513 460.653 969.916 460.418C970.33 460.173 970.658 459.821 970.9 459.362C971.152 458.904 971.276 458.37 971.271 457.762ZM976.694 450.371L976.791 462.21H974.967L974.87 450.371H976.694ZM983.011 462.354C982.179 462.354 981.425 462.168 980.75 461.794C980.075 461.41 979.543 460.877 979.153 460.194C978.763 459.501 978.565 458.701 978.557 457.794C978.55 456.899 978.741 456.104 979.13 455.411C979.519 454.717 980.053 454.184 980.733 453.811C981.412 453.437 982.173 453.251 983.016 453.251C983.859 453.251 984.623 453.437 985.309 453.811C985.994 454.184 986.537 454.717 986.938 455.411C987.338 456.104 987.542 456.899 987.549 457.794C987.557 458.69 987.361 459.485 986.961 460.178C986.561 460.872 986.011 461.41 985.31 461.794C984.62 462.168 983.853 462.354 983.011 462.354ZM982.998 460.77C983.467 460.77 983.903 460.658 984.307 460.434C984.721 460.21 985.054 459.874 985.307 459.426C985.559 458.978 985.683 458.434 985.677 457.794C985.672 457.155 985.545 456.616 985.296 456.179C985.047 455.731 984.719 455.395 984.312 455.171C983.905 454.947 983.466 454.835 982.997 454.835C982.528 454.835 982.091 454.947 981.688 455.171C981.295 455.395 980.983 455.731 980.752 456.179C980.521 456.616 980.408 457.155 980.413 457.794C980.421 458.744 980.667 459.48 981.151 460.002C981.646 460.514 982.262 460.77 982.998 460.77ZM997.252 453.395L991.951 466.354H990.063L991.819 462.066L988.276 453.395H990.308L992.843 460.114L995.364 453.395H997.252ZM1009.3 453.251C1009.99 453.251 1010.61 453.395 1011.16 453.683C1011.72 453.971 1012.15 454.397 1012.47 454.963C1012.79 455.528 1012.96 456.211 1012.96 457.011L1013.01 462.21H1011.2L1011.16 457.282C1011.15 456.493 1010.95 455.891 1010.55 455.475C1010.15 455.048 1009.61 454.835 1008.93 454.835C1008.25 454.835 1007.7 455.048 1007.3 455.475C1006.91 455.891 1006.72 456.493 1006.72 457.282L1006.77 462.21H1004.96L1004.92 457.282C1004.91 456.493 1004.71 455.891 1004.31 455.475C1003.91 455.048 1003.37 454.835 1002.69 454.835C1002.01 454.835 1001.46 455.048 1001.06 455.475C1000.67 455.891 1000.48 456.493 1000.48 457.282L1000.53 462.21H998.701L998.629 453.395H1000.45L1000.46 454.403C1000.76 454.04 1001.13 453.757 1001.59 453.555C1002.05 453.352 1002.54 453.251 1003.06 453.251C1003.76 453.251 1004.39 453.4 1004.95 453.699C1005.51 453.997 1005.94 454.429 1006.24 454.995C1006.5 454.461 1006.92 454.04 1007.48 453.731C1008.04 453.411 1008.65 453.251 1009.3 453.251ZM1023.37 457.586C1023.37 457.917 1023.35 458.216 1023.31 458.482H1016.58C1016.63 459.186 1016.9 459.752 1017.37 460.178C1017.85 460.605 1018.42 460.818 1019.11 460.818C1020.09 460.818 1020.78 460.408 1021.18 459.586H1023.14C1022.88 460.397 1022.4 461.064 1021.71 461.586C1021.02 462.098 1020.15 462.354 1019.12 462.354C1018.28 462.354 1017.52 462.168 1016.84 461.794C1016.18 461.41 1015.65 460.877 1015.26 460.194C1014.88 459.501 1014.69 458.701 1014.68 457.794C1014.67 456.888 1014.85 456.093 1015.21 455.411C1015.57 454.717 1016.09 454.184 1016.75 453.811C1017.41 453.437 1018.18 453.251 1019.04 453.251C1019.88 453.251 1020.62 453.432 1021.27 453.795C1021.93 454.157 1022.44 454.669 1022.81 455.331C1023.17 455.981 1023.36 456.733 1023.37 457.586ZM1021.46 457.011C1021.44 456.339 1021.2 455.8 1020.73 455.395C1020.25 454.989 1019.67 454.787 1018.98 454.787C1018.35 454.787 1017.81 454.989 1017.37 455.395C1016.92 455.789 1016.66 456.328 1016.58 457.011H1021.46ZM1029.58 453.251C1030.27 453.251 1030.89 453.395 1031.44 453.683C1031.99 453.971 1032.43 454.397 1032.74 454.963C1033.06 455.528 1033.22 456.211 1033.22 457.011L1033.27 462.21H1031.46L1031.42 457.282C1031.41 456.493 1031.21 455.891 1030.81 455.475C1030.41 455.048 1029.87 454.835 1029.19 454.835C1028.51 454.835 1027.96 455.048 1027.56 455.475C1027.17 455.891 1026.98 456.493 1026.98 457.282L1027.03 462.21H1025.2L1025.13 453.395H1026.95L1026.96 454.403C1027.26 454.04 1027.63 453.757 1028.09 453.555C1028.56 453.352 1029.05 453.251 1029.58 453.251ZM1037.66 454.883L1037.7 459.762C1037.7 460.093 1037.78 460.333 1037.93 460.482C1038.09 460.621 1038.36 460.69 1038.73 460.69H1039.85L1039.86 462.21H1038.42C1037.6 462.21 1036.97 462.018 1036.53 461.634C1036.09 461.25 1035.87 460.626 1035.86 459.762L1035.82 454.883H1034.78L1034.77 453.395H1035.81L1035.79 451.203H1037.63L1037.65 453.395H1039.79L1039.8 454.883H1037.66Z" fill="#2CBDE9"/>
<path d="M370.911 533.373C372.687 533.373 374.242 533.725 375.576 534.429C376.91 535.133 377.942 536.125 378.672 537.405C379.419 538.669 379.799 540.133 379.812 541.797C379.826 543.445 379.47 544.909 378.744 546.189C378.035 547.469 377.011 548.461 375.673 549.165C374.351 549.869 372.809 550.221 371.049 550.221H364.737L364.599 533.373H370.911ZM370.756 546.669C372.308 546.669 373.513 546.245 374.37 545.397C375.227 544.549 375.649 543.349 375.636 541.797C375.624 540.245 375.182 539.037 374.311 538.173C373.439 537.309 372.228 536.877 370.676 536.877H368.732L368.812 546.669H370.756ZM381.304 543.501C381.292 542.125 381.539 540.917 382.042 539.877C382.562 538.837 383.267 538.037 384.158 537.477C385.05 536.917 386.047 536.637 387.151 536.637C388.095 536.637 388.921 536.829 389.628 537.213C390.351 537.597 390.907 538.101 391.297 538.725L391.281 536.829H395.385L395.495 550.221H391.391L391.375 548.325C390.98 548.949 390.425 549.453 389.708 549.837C389.007 550.221 388.184 550.413 387.24 550.413C386.152 550.413 385.158 550.133 384.258 549.573C383.357 548.997 382.638 548.189 382.102 547.149C381.581 546.093 381.315 544.877 381.304 543.501ZM391.336 543.525C391.328 542.501 391.033 541.693 390.452 541.101C389.887 540.509 389.197 540.213 388.381 540.213C387.565 540.213 386.871 540.509 386.3 541.101C385.745 541.677 385.471 542.477 385.48 543.501C385.488 544.525 385.775 545.341 386.34 545.949C386.921 546.541 387.619 546.837 388.435 546.837C389.251 546.837 389.937 546.541 390.492 545.949C391.063 545.357 391.344 544.549 391.336 543.525ZM405.899 546.741L405.928 550.221H403.84C402.352 550.221 401.189 549.861 400.351 549.141C399.513 548.405 399.087 547.213 399.074 545.565L399.03 540.237H397.398L397.37 536.829H399.002L398.975 533.565H403.079L403.106 536.829H405.794L405.822 540.237H403.134L403.178 545.613C403.181 546.013 403.28 546.301 403.473 546.477C403.667 546.653 403.987 546.741 404.435 546.741H405.899ZM407.343 543.501C407.332 542.125 407.578 540.917 408.081 539.877C408.601 538.837 409.306 538.037 410.197 537.477C411.089 536.917 412.087 536.637 413.191 536.637C414.135 536.637 414.96 536.829 415.667 537.213C416.39 537.597 416.947 538.101 417.336 538.725L417.32 536.829H421.424L421.534 550.221H417.43L417.414 548.325C417.02 548.949 416.464 549.453 415.747 549.837C415.046 550.221 414.224 550.413 413.28 550.413C412.192 550.413 411.197 550.133 410.297 549.573C409.396 548.997 408.677 548.189 408.141 547.149C407.62 546.093 407.354 544.877 407.343 543.501ZM417.375 543.525C417.367 542.501 417.072 541.693 416.491 541.101C415.926 540.509 415.236 540.213 414.42 540.213C413.604 540.213 412.91 540.509 412.339 541.101C411.784 541.677 411.51 542.477 411.519 543.501C411.527 544.525 411.814 545.341 412.379 545.949C412.96 546.541 413.658 546.837 414.474 546.837C415.29 546.837 415.976 546.541 416.531 545.949C417.102 545.357 417.383 544.549 417.375 543.525ZM440.053 547.245H433.765L432.781 550.221H428.485L434.443 533.373H439.195L445.429 550.221H441.085L440.053 547.245ZM438.971 544.077L436.832 537.909L434.819 544.077H438.971ZM455.333 536.685C456.901 536.685 458.153 537.197 459.09 538.221C460.042 539.229 460.526 540.621 460.54 542.397L460.604 550.221H456.524L456.465 542.949C456.457 542.053 456.22 541.357 455.752 540.861C455.283 540.365 454.657 540.117 453.873 540.117C453.089 540.117 452.467 540.365 452.008 540.861C451.548 541.357 451.321 542.053 451.329 542.949L451.388 550.221H447.284L447.174 536.829H451.278L451.293 538.605C451.704 538.013 452.26 537.549 452.962 537.213C453.663 536.861 454.453 536.685 455.333 536.685ZM471.505 536.685C473.073 536.685 474.325 537.197 475.262 538.221C476.214 539.229 476.697 540.621 476.712 542.397L476.776 550.221H472.696L472.637 542.949C472.629 542.053 472.391 541.357 471.923 540.861C471.455 540.365 470.829 540.117 470.045 540.117C469.261 540.117 468.639 540.365 468.179 540.861C467.719 541.357 467.493 542.053 467.501 542.949L467.56 550.221H463.456L463.346 536.829H467.45L467.465 538.605C467.876 538.013 468.432 537.549 469.133 537.213C469.835 536.861 470.625 536.685 471.505 536.685ZM485.726 550.413C484.414 550.413 483.227 550.133 482.167 549.573C481.122 549.013 480.292 548.213 479.675 547.173C479.075 546.133 478.769 544.917 478.757 543.525C478.746 542.149 479.04 540.941 479.639 539.901C480.239 538.845 481.064 538.037 482.115 537.477C483.167 536.917 484.349 536.637 485.661 536.637C486.973 536.637 488.159 536.917 489.219 537.477C490.28 538.037 491.119 538.845 491.735 539.901C492.352 540.941 492.666 542.149 492.677 543.525C492.688 544.901 492.386 546.117 491.771 547.173C491.172 548.213 490.338 549.013 489.271 549.573C488.219 550.133 487.038 550.413 485.726 550.413ZM485.696 546.861C486.48 546.861 487.142 546.573 487.681 545.997C488.237 545.421 488.51 544.597 488.501 543.525C488.492 542.453 488.214 541.629 487.665 541.053C487.132 540.477 486.474 540.189 485.69 540.189C484.89 540.189 484.228 540.477 483.705 541.053C483.181 541.613 482.924 542.437 482.933 543.525C482.942 544.597 483.205 545.421 483.721 545.997C484.254 546.573 484.912 546.861 485.696 546.861ZM502.345 546.741L502.373 550.221H500.285C498.797 550.221 497.634 549.861 496.796 549.141C495.958 548.405 495.533 547.213 495.519 545.565L495.475 540.237H493.843L493.815 536.829H495.447L495.421 533.565H499.525L499.551 536.829H502.239L502.267 540.237H499.579L499.623 545.613C499.627 546.013 499.725 546.301 499.919 546.477C500.112 546.653 500.433 546.741 500.881 546.741H502.345ZM503.788 543.501C503.777 542.125 504.023 540.917 504.526 539.877C505.046 538.837 505.751 538.037 506.643 537.477C507.534 536.917 508.532 536.637 509.636 536.637C510.58 536.637 511.405 536.829 512.113 537.213C512.836 537.597 513.392 538.101 513.781 538.725L513.765 536.829H517.869L517.979 550.221H513.875L513.86 548.325C513.465 548.949 512.909 549.453 512.192 549.837C511.491 550.221 510.669 550.413 509.725 550.413C508.637 550.413 507.643 550.133 506.742 549.573C505.841 548.997 505.123 548.189 504.586 547.149C504.065 546.093 503.799 544.877 503.788 543.501ZM513.82 543.525C513.812 542.501 513.517 541.693 512.936 541.101C512.372 540.509 511.681 540.213 510.865 540.213C510.049 540.213 509.356 540.509 508.784 541.101C508.229 541.677 507.956 542.477 507.964 543.501C507.973 544.525 508.259 545.341 508.824 545.949C509.405 546.541 510.104 546.837 510.92 546.837C511.736 546.837 512.421 546.541 512.976 545.949C513.547 545.357 513.829 544.549 513.82 543.525ZM528.384 546.741L528.412 550.221H526.324C524.836 550.221 523.673 549.861 522.835 549.141C521.997 548.405 521.572 547.213 521.558 545.565L521.514 540.237H519.882L519.854 536.829H521.486L521.46 533.565H525.564L525.59 536.829H528.278L528.306 540.237H525.618L525.663 545.613C525.666 546.013 525.764 546.301 525.958 546.477C526.151 546.653 526.472 546.741 526.92 546.741H528.384ZM532.641 535.437C531.921 535.437 531.327 535.229 530.86 534.813C530.408 534.381 530.18 533.853 530.175 533.229C530.17 532.589 530.389 532.061 530.834 531.645C531.294 531.213 531.885 530.997 532.605 530.997C533.309 530.997 533.886 531.213 534.338 531.645C534.805 532.061 535.042 532.589 535.047 533.229C535.052 533.853 534.824 534.381 534.364 534.813C533.919 535.229 533.345 535.437 532.641 535.437ZM534.692 536.829L534.802 550.221H530.698L530.588 536.829H534.692ZM543.874 550.413C542.562 550.413 541.376 550.133 540.315 549.573C539.271 549.013 538.44 548.213 537.823 547.173C537.223 546.133 536.917 544.917 536.906 543.525C536.894 542.149 537.188 540.941 537.788 539.901C538.387 538.845 539.213 538.037 540.264 537.477C541.315 536.917 542.497 536.637 543.809 536.637C545.121 536.637 546.307 536.917 547.368 537.477C548.429 538.037 549.267 538.845 549.884 539.901C550.5 540.941 550.814 542.149 550.826 543.525C550.837 544.901 550.535 546.117 549.919 547.173C549.32 548.213 548.487 549.013 547.419 549.573C546.368 550.133 545.186 550.413 543.874 550.413ZM543.845 546.861C544.629 546.861 545.291 546.573 545.83 545.997C546.385 545.421 546.658 544.597 546.65 543.525C546.641 542.453 546.362 541.629 545.813 541.053C545.281 540.477 544.622 540.189 543.838 540.189C543.038 540.189 542.377 540.477 541.853 541.053C541.33 541.613 541.073 542.437 541.082 543.525C541.09 544.597 541.353 545.421 541.87 545.997C542.403 546.573 543.061 546.861 543.845 546.861ZM561.107 536.685C562.675 536.685 563.927 537.197 564.863 538.221C565.816 539.229 566.299 540.621 566.314 542.397L566.378 550.221H562.298L562.238 542.949C562.231 542.053 561.993 541.357 561.525 540.861C561.057 540.365 560.431 540.117 559.647 540.117C558.863 540.117 558.241 540.365 557.781 540.861C557.321 541.357 557.095 542.053 557.102 542.949L557.162 550.221H553.058L552.948 536.829H557.052L557.066 538.605C557.478 538.013 558.034 537.549 558.735 537.213C559.436 536.861 560.227 536.685 561.107 536.685Z" fill="#2CBDE9"/>
<rect x="428.782" y="446.222" width="69.5021" height="69.5021" rx="13" fill="url(#paint6_linear_1608_164808)"/>
<path d="M479.647 489.586H483.29L483.459 500.542H472.452L472.422 496.917H457.772L457.802 500.542H446.795L446.626 489.586H450.268L449.99 475.005H446.348L446.179 464.049H457.186L457.216 467.675H471.865L471.835 464.049H482.843L483.012 475.005H479.369L479.647 489.586ZM475.925 489.586L475.647 475.005H472.005L471.975 471.379H457.325L457.355 475.005H453.712L453.99 489.586H457.633L457.663 493.212H472.312L472.283 489.586H475.925ZM449.93 467.675L449.96 471.3H453.603L453.573 467.675H449.93ZM450.298 493.212L450.328 496.838H453.971L453.941 493.212H450.298ZM475.587 467.675L475.617 471.3H479.259L479.23 467.675H475.587ZM476.034 493.212L476.064 496.838H479.706L479.677 493.212H476.034Z" fill="white"/>
<path d="M750.813 533.373L750.951 550.221H746.847L746.764 540.117L743.079 550.221H739.767L735.892 540.093L735.975 550.221H731.871L731.733 533.373H736.581L741.405 545.037L745.989 533.373H750.813ZM760 550.413C758.688 550.413 757.502 550.133 756.441 549.573C755.397 549.013 754.566 548.213 753.949 547.173C753.349 546.133 753.043 544.917 753.032 543.525C753.02 542.149 753.314 540.941 753.914 539.901C754.513 538.845 755.339 538.037 756.39 537.477C757.441 536.917 758.623 536.637 759.935 536.637C761.247 536.637 762.433 536.917 763.494 537.477C764.555 538.037 765.393 538.845 766.01 539.901C766.626 540.941 766.94 542.149 766.952 543.525C766.963 544.901 766.661 546.117 766.045 547.173C765.446 548.213 764.613 549.013 763.545 549.573C762.494 550.133 761.312 550.413 760 550.413ZM759.971 546.861C760.755 546.861 761.417 546.573 761.956 545.997C762.511 545.421 762.784 544.597 762.776 543.525C762.767 542.453 762.488 541.629 761.939 541.053C761.407 540.477 760.748 540.189 759.964 540.189C759.164 540.189 758.503 540.477 757.979 541.053C757.456 541.613 757.199 542.437 757.208 543.525C757.216 544.597 757.479 545.421 757.996 545.997C758.529 546.573 759.187 546.861 759.971 546.861ZM768.313 543.501C768.301 542.125 768.547 540.917 769.051 539.877C769.57 538.837 770.276 538.037 771.167 537.477C772.059 536.917 773.056 536.637 774.16 536.637C775.04 536.637 775.842 536.821 776.565 537.189C777.304 537.557 777.884 538.053 778.305 538.677L778.254 532.461H782.358L782.504 550.221H778.4L778.384 548.301C778.005 548.941 777.457 549.453 776.741 549.837C776.04 550.221 775.217 550.413 774.273 550.413C773.169 550.413 772.167 550.133 771.266 549.573C770.366 548.997 769.647 548.189 769.11 547.149C768.59 546.093 768.324 544.877 768.313 543.501ZM778.345 543.525C778.336 542.501 778.042 541.693 777.461 541.101C776.896 540.509 776.206 540.213 775.39 540.213C774.574 540.213 773.88 540.509 773.309 541.101C772.754 541.677 772.48 542.477 772.489 543.501C772.497 544.525 772.784 545.341 773.349 545.949C773.93 546.541 774.628 546.837 775.444 546.837C776.26 546.837 776.946 546.541 777.501 545.949C778.072 545.357 778.353 544.549 778.345 543.525ZM798.04 543.309C798.043 543.693 798.022 544.093 797.978 544.509L788.69 544.509C788.761 545.341 789.03 545.981 789.498 546.429C789.981 546.861 790.567 547.077 791.255 547.077C792.279 547.077 792.987 546.645 793.38 545.781H797.748C797.532 546.661 797.13 547.453 796.544 548.157C795.974 548.861 795.25 549.413 794.373 549.813C793.497 550.213 792.514 550.413 791.426 550.413C790.114 550.413 788.944 550.133 787.915 549.573C786.887 549.013 786.08 548.213 785.496 547.173C784.911 546.133 784.613 544.917 784.602 543.525C784.59 542.133 784.86 540.917 785.412 539.877C785.979 538.837 786.773 538.037 787.792 537.477C788.812 536.917 789.985 536.637 791.313 536.637C792.609 536.637 793.764 536.909 794.776 537.453C795.788 537.997 796.579 538.773 797.147 539.781C797.731 540.789 798.029 541.965 798.04 543.309ZM793.831 542.229C793.825 541.525 793.581 540.965 793.097 540.549C792.614 540.133 792.012 539.925 791.292 539.925C790.604 539.925 790.022 540.125 789.545 540.525C789.085 540.925 788.801 541.493 788.695 542.229H793.831ZM804.22 532.461L804.366 550.221H800.262L800.116 532.461H804.22ZM818.6 533.373C820.376 533.373 821.931 533.725 823.264 534.429C824.598 535.133 825.63 536.125 826.361 537.405C827.107 538.669 827.487 540.133 827.501 541.797C827.514 543.445 827.158 544.909 826.433 546.189C825.723 547.469 824.699 548.461 823.361 549.165C822.039 549.869 820.498 550.221 818.738 550.221H812.426L812.288 533.373H818.6ZM818.445 546.669C819.997 546.669 821.201 546.245 822.058 545.397C822.915 544.549 823.338 543.349 823.325 541.797C823.312 540.245 822.87 539.037 821.999 538.173C821.128 537.309 819.916 536.877 818.364 536.877H816.42L816.501 546.669H818.445ZM831.806 535.437C831.086 535.437 830.492 535.229 830.025 534.813C829.573 534.381 829.345 533.853 829.34 533.229C829.335 532.589 829.554 532.061 829.999 531.645C830.459 531.213 831.05 530.997 831.77 530.997C832.474 530.997 833.051 531.213 833.503 531.645C833.97 532.061 834.207 532.589 834.212 533.229C834.217 533.853 833.989 534.381 833.529 534.813C833.084 535.229 832.51 535.437 831.806 535.437ZM833.858 536.829L833.967 550.221H829.863L829.754 536.829H833.858ZM836.07 543.501C836.059 542.125 836.305 540.917 836.809 539.877C837.328 538.837 838.034 538.037 838.925 537.477C839.816 536.917 840.814 536.637 841.918 536.637C842.862 536.637 843.688 536.829 844.395 537.213C845.118 537.597 845.674 538.101 846.063 538.725L846.048 536.829H850.152L850.262 550.221H846.158L846.142 548.325C845.747 548.949 845.191 549.453 844.474 549.837C843.774 550.221 842.951 550.413 842.007 550.413C840.919 550.413 839.925 550.133 839.024 549.573C838.123 548.997 837.405 548.189 836.868 547.149C836.348 546.093 836.082 544.877 836.07 543.501ZM846.103 543.525C846.094 542.501 845.8 541.693 845.219 541.101C844.654 540.509 843.963 540.213 843.147 540.213C842.331 540.213 841.638 540.509 841.067 541.101C840.511 541.677 840.238 542.477 840.246 543.501C840.255 544.525 840.541 545.341 841.106 545.949C841.687 546.541 842.386 546.837 843.202 546.837C844.018 546.837 844.703 546.541 845.258 545.949C845.83 545.357 846.111 544.549 846.103 543.525ZM858.207 536.637C859.151 536.637 859.977 536.829 860.684 537.213C861.407 537.597 861.963 538.101 862.352 538.725L862.337 536.829H866.441L866.55 550.197C866.56 551.429 866.322 552.541 865.834 553.533C865.362 554.541 864.625 555.341 863.621 555.933C862.634 556.525 861.397 556.821 859.909 556.821C857.925 556.821 856.313 556.349 855.073 555.405C853.833 554.477 853.119 553.213 852.93 551.613H856.986C857.118 552.125 857.425 552.525 857.908 552.813C858.39 553.117 858.984 553.269 859.688 553.269C860.536 553.269 861.206 553.021 861.697 552.525C862.206 552.045 862.455 551.269 862.446 550.197L862.431 548.301C862.036 548.925 861.488 549.437 860.787 549.837C860.087 550.221 859.264 550.413 858.32 550.413C857.216 550.413 856.214 550.133 855.313 549.573C854.413 548.997 853.694 548.189 853.157 547.149C852.637 546.093 852.371 544.877 852.359 543.501C852.348 542.125 852.594 540.917 853.098 539.877C853.617 538.837 854.323 538.037 855.214 537.477C856.105 536.917 857.103 536.637 858.207 536.637ZM862.392 543.525C862.383 542.501 862.089 541.693 861.508 541.101C860.943 540.509 860.252 540.213 859.436 540.213C858.62 540.213 857.927 540.509 857.356 541.101C856.8 541.677 856.527 542.477 856.535 543.501C856.544 544.525 856.831 545.341 857.396 545.949C857.976 546.541 858.675 546.837 859.491 546.837C860.307 546.837 860.992 546.541 861.548 545.949C862.119 545.357 862.4 544.549 862.392 543.525ZM877.569 536.685C879.137 536.685 880.389 537.197 881.325 538.221C882.277 539.229 882.761 540.621 882.775 542.397L882.84 550.221H878.76L878.7 542.949C878.693 542.053 878.455 541.357 877.987 540.861C877.519 540.365 876.893 540.117 876.109 540.117C875.325 540.117 874.703 540.365 874.243 540.861C873.783 541.357 873.557 542.053 873.564 542.949L873.624 550.221H869.52L869.41 536.829H873.514L873.528 538.605C873.939 538.013 874.496 537.549 875.197 537.213C875.898 536.861 876.689 536.685 877.569 536.685ZM891.789 550.413C890.477 550.413 889.291 550.133 888.23 549.573C887.186 549.013 886.355 548.213 885.739 547.173C885.138 546.133 884.832 544.917 884.821 543.525C884.809 542.149 885.103 540.941 885.703 539.901C886.302 538.845 887.128 538.037 888.179 537.477C889.23 536.917 890.412 536.637 891.724 536.637C893.036 536.637 894.222 536.917 895.283 537.477C896.344 538.037 897.182 538.845 897.799 539.901C898.415 540.941 898.729 542.149 898.741 543.525C898.752 544.901 898.45 546.117 897.835 547.173C897.235 548.213 896.402 549.013 895.334 549.573C894.283 550.133 893.101 550.413 891.789 550.413ZM891.76 546.861C892.544 546.861 893.206 546.573 893.745 545.997C894.3 545.421 894.573 544.597 894.565 543.525C894.556 542.453 894.277 541.629 893.728 541.053C893.196 540.477 892.537 540.189 891.753 540.189C890.953 540.189 890.292 540.477 889.768 541.053C889.245 541.613 888.988 542.437 888.997 543.525C889.005 544.597 889.268 545.421 889.785 545.997C890.318 546.573 890.976 546.861 891.76 546.861ZM906.422 550.413C905.254 550.413 904.213 550.213 903.297 549.813C902.382 549.413 901.658 548.869 901.124 548.181C900.59 547.477 900.288 546.693 900.217 545.829H904.273C904.325 546.293 904.544 546.669 904.93 546.957C905.316 547.245 905.79 547.389 906.35 547.389C906.862 547.389 907.253 547.293 907.523 547.101C907.809 546.893 907.951 546.629 907.949 546.309C907.946 545.925 907.743 545.645 907.342 545.469C906.94 545.277 906.29 545.069 905.393 544.845C904.431 544.621 903.629 544.389 902.987 544.149C902.345 543.893 901.79 543.501 901.321 542.973C900.853 542.429 900.615 541.701 900.607 540.789C900.601 540.021 900.803 539.325 901.214 538.701C901.641 538.061 902.261 537.557 903.074 537.189C903.903 536.821 904.885 536.637 906.021 536.637C907.701 536.637 909.025 537.053 909.992 537.885C910.974 538.717 911.543 539.821 911.699 541.197H907.907C907.839 540.733 907.628 540.365 907.274 540.093C906.935 539.821 906.486 539.685 905.926 539.685C905.446 539.685 905.079 539.781 904.825 539.973C904.57 540.149 904.444 540.397 904.447 540.717C904.45 541.101 904.652 541.389 905.054 541.581C905.471 541.773 906.113 541.965 906.979 542.157C907.973 542.413 908.783 542.669 909.409 542.925C910.035 543.165 910.582 543.565 911.051 544.125C911.535 544.669 911.789 545.405 911.813 546.333C911.819 547.117 911.601 547.821 911.158 548.445C910.731 549.053 910.103 549.533 909.274 549.885C908.461 550.237 907.51 550.413 906.422 550.413ZM916.298 535.437C915.578 535.437 914.985 535.229 914.517 534.813C914.066 534.381 913.837 533.853 913.832 533.229C913.827 532.589 914.047 532.061 914.491 531.645C914.952 531.213 915.542 530.997 916.262 530.997C916.966 530.997 917.544 531.213 917.995 531.645C918.463 532.061 918.699 532.589 918.704 533.229C918.709 533.853 918.482 534.381 918.021 534.813C917.577 535.229 917.002 535.437 916.298 535.437ZM918.35 536.829L918.46 550.221H914.356L914.246 536.829H918.35ZM926.883 550.413C925.715 550.413 924.674 550.213 923.758 549.813C922.843 549.413 922.119 548.869 921.585 548.181C921.051 547.477 920.749 546.693 920.678 545.829H924.734C924.785 546.293 925.005 546.669 925.391 546.957C925.777 547.245 926.25 547.389 926.81 547.389C927.322 547.389 927.714 547.293 927.984 547.101C928.27 546.893 928.412 546.629 928.41 546.309C928.406 545.925 928.204 545.645 927.803 545.469C927.401 545.277 926.751 545.069 925.854 544.845C924.892 544.621 924.09 544.389 923.448 544.149C922.806 543.893 922.251 543.501 921.782 542.973C921.314 542.429 921.076 541.701 921.068 540.789C921.062 540.021 921.264 539.325 921.675 538.701C922.102 538.061 922.722 537.557 923.535 537.189C924.364 536.821 925.346 536.637 926.482 536.637C928.162 536.637 929.486 537.053 930.453 537.885C931.435 538.717 932.004 539.821 932.16 541.197H928.368C928.3 540.733 928.089 540.365 927.735 540.093C927.396 539.821 926.947 539.685 926.387 539.685C925.907 539.685 925.54 539.781 925.286 539.973C925.031 540.149 924.905 540.397 924.908 540.717C924.911 541.101 925.113 541.389 925.515 541.581C925.932 541.773 926.574 541.965 927.44 542.157C928.434 542.413 929.244 542.669 929.87 542.925C930.496 543.165 931.043 543.565 931.512 544.125C931.996 544.669 932.25 545.405 932.274 546.333C932.28 547.117 932.062 547.821 931.619 548.445C931.192 549.053 930.564 549.533 929.735 549.885C928.922 550.237 927.971 550.413 926.883 550.413Z" fill="#2CBDE9"/>
<rect x="797.143" y="446.222" width="69.5021" height="69.5021" rx="13" fill="url(#paint7_linear_1608_164808)"/>
<path d="M843.691 491.773L851.825 499.905L849.138 502.593L841.005 494.458C837.979 496.884 834.215 498.203 830.337 498.198C820.902 498.198 813.244 490.54 813.244 481.105C813.244 471.669 820.902 464.012 830.337 464.012C839.773 464.012 847.43 471.669 847.43 481.105C847.436 484.983 846.116 488.747 843.691 491.773ZM839.881 490.363C842.291 487.885 843.637 484.562 843.632 481.105C843.632 473.759 837.681 467.81 830.337 467.81C822.991 467.81 817.043 473.759 817.043 481.105C817.043 488.449 822.991 494.399 830.337 494.399C833.795 494.405 837.117 493.059 839.596 490.648L839.881 490.363Z" fill="white"/>
<path fill-rule="evenodd" clip-rule="evenodd" d="M826.881 471.609L833.272 483.852L835.396 480.893H841.353L841.353 484.14H836.95L832.858 489.841L826.818 478.27L823.607 484.14H818.562L818.562 480.893H821.804L826.881 471.609Z" fill="white"/>
<path d="M579.491 378.152L579.629 394.999H575.525L575.442 384.895L571.757 394.999H568.445L564.57 384.871L564.653 394.999H560.549L560.411 378.152H565.259L570.082 389.815L574.667 378.152H579.491ZM588.678 395.191C587.366 395.191 586.179 394.911 585.119 394.351C584.074 393.791 583.244 392.991 582.627 391.951C582.027 390.911 581.721 389.695 581.709 388.303C581.698 386.927 581.992 385.719 582.592 384.679C583.191 383.624 584.016 382.816 585.068 382.256C586.119 381.696 587.301 381.416 588.613 381.416C589.925 381.416 591.111 381.696 592.172 382.256C593.232 382.816 594.071 383.624 594.688 384.679C595.304 385.719 595.618 386.927 595.629 388.303C595.641 389.679 595.339 390.895 594.723 391.951C594.124 392.991 593.29 393.791 592.223 394.351C591.171 394.911 589.99 395.191 588.678 395.191ZM588.649 391.639C589.433 391.639 590.094 391.351 590.634 390.775C591.189 390.199 591.462 389.375 591.453 388.303C591.444 387.231 591.166 386.407 590.617 385.831C590.084 385.255 589.426 384.967 588.642 384.967C587.842 384.967 587.18 385.255 586.657 385.831C586.134 386.391 585.876 387.215 585.885 388.303C585.894 389.375 586.157 390.199 586.674 390.775C587.206 391.351 587.865 391.639 588.649 391.639ZM596.99 388.279C596.979 386.903 597.225 385.695 597.729 384.655C598.248 383.616 598.953 382.816 599.845 382.256C600.736 381.696 601.734 381.416 602.838 381.416C603.718 381.416 604.52 381.6 605.243 381.968C605.982 382.336 606.562 382.832 606.983 383.456L606.932 377.24H611.036L611.181 394.999H607.077L607.062 393.079C606.683 393.719 606.135 394.231 605.418 394.615C604.717 394.999 603.895 395.191 602.951 395.191C601.847 395.191 600.845 394.911 599.944 394.351C599.043 393.775 598.325 392.967 597.788 391.927C597.268 390.871 597.002 389.655 596.99 388.279ZM607.023 388.303C607.014 387.279 606.719 386.471 606.139 385.879C605.574 385.287 604.883 384.991 604.067 384.991C603.251 384.991 602.558 385.287 601.987 385.879C601.431 386.455 601.158 387.255 601.166 388.279C601.175 389.303 601.461 390.119 602.026 390.727C602.607 391.319 603.306 391.615 604.122 391.615C604.938 391.615 605.623 391.319 606.178 390.727C606.75 390.135 607.031 389.327 607.023 388.303ZM626.718 388.087C626.721 388.471 626.7 388.871 626.656 389.287H617.368C617.438 390.119 617.708 390.759 618.175 391.207C618.659 391.639 619.245 391.855 619.933 391.855C620.957 391.855 621.665 391.423 622.058 390.559H626.426C626.209 391.439 625.808 392.231 625.222 392.935C624.651 393.639 623.928 394.191 623.051 394.591C622.174 394.991 621.192 395.191 620.104 395.191C618.792 395.191 617.622 394.911 616.593 394.351C615.565 393.791 614.758 392.991 614.173 391.951C613.589 390.911 613.291 389.695 613.28 388.303C613.268 386.911 613.538 385.695 614.09 384.655C614.657 383.616 615.451 382.816 616.47 382.256C617.489 381.696 618.663 381.416 619.991 381.416C621.287 381.416 622.441 381.688 623.454 382.232C624.466 382.776 625.257 383.552 625.825 384.559C626.409 385.567 626.707 386.743 626.718 388.087ZM622.509 387.007C622.503 386.303 622.259 385.743 621.775 385.327C621.292 384.911 620.69 384.703 619.97 384.703C619.282 384.703 618.7 384.903 618.223 385.303C617.762 385.703 617.479 386.271 617.373 387.007H622.509ZM632.898 377.24L633.044 394.999H628.94L628.794 377.24H632.898ZM653.085 378.152L653.112 381.44H648.648L648.76 394.999H644.656L644.544 381.44H640.08L640.053 378.152H653.085ZM659.296 383.84C659.77 383.104 660.365 382.528 661.082 382.112C661.798 381.68 662.596 381.464 663.476 381.464L663.512 385.807H662.384C661.36 385.807 660.594 386.031 660.085 386.479C659.577 386.911 659.327 387.679 659.336 388.783L659.387 394.999H655.283L655.173 381.608H659.277L659.296 383.84ZM664.678 388.279C664.667 386.903 664.913 385.695 665.416 384.655C665.936 383.616 666.641 382.816 667.532 382.256C668.424 381.696 669.422 381.416 670.526 381.416C671.47 381.416 672.295 381.608 673.002 381.992C673.725 382.376 674.282 382.88 674.671 383.504L674.655 381.608H678.759L678.869 394.999H674.765L674.749 393.103C674.354 393.727 673.799 394.231 673.082 394.615C672.381 394.999 671.559 395.191 670.615 395.191C669.527 395.191 668.532 394.911 667.632 394.351C666.731 393.775 666.012 392.967 665.476 391.927C664.955 390.871 664.689 389.655 664.678 388.279ZM674.71 388.303C674.702 387.279 674.407 386.471 673.826 385.879C673.261 385.287 672.571 384.991 671.755 384.991C670.939 384.991 670.245 385.287 669.674 385.879C669.119 386.455 668.845 387.255 668.854 388.279C668.862 389.303 669.149 390.119 669.714 390.727C670.295 391.319 670.993 391.615 671.809 391.615C672.625 391.615 673.311 391.319 673.866 390.727C674.437 390.135 674.718 389.327 674.71 388.303ZM683.781 380.216C683.061 380.216 682.467 380.008 682 379.592C681.548 379.16 681.32 378.632 681.315 378.008C681.309 377.368 681.529 376.84 681.974 376.424C682.434 375.992 683.024 375.776 683.744 375.776C684.448 375.776 685.026 375.992 685.478 376.424C685.945 376.84 686.181 377.368 686.187 378.008C686.192 378.632 685.964 379.16 685.504 379.592C685.059 380.008 684.485 380.216 683.781 380.216ZM685.832 381.608L685.942 394.999H681.838L681.728 381.608H685.832ZM696.965 381.464C698.533 381.464 699.785 381.976 700.722 383C701.674 384.007 702.157 385.399 702.172 387.175L702.236 394.999H698.156L698.096 387.727C698.089 386.831 697.851 386.135 697.383 385.639C696.915 385.143 696.289 384.895 695.505 384.895C694.721 384.895 694.099 385.143 693.639 385.639C693.179 386.135 692.953 386.831 692.96 387.727L693.02 394.999H688.916L688.806 381.608H692.91L692.925 383.384C693.336 382.792 693.892 382.328 694.593 381.992C695.295 381.64 696.085 381.464 696.965 381.464ZM707.031 380.216C706.311 380.216 705.717 380.008 705.25 379.592C704.798 379.16 704.57 378.632 704.565 378.008C704.559 377.368 704.779 376.84 705.224 376.424C705.684 375.992 706.274 375.776 706.994 375.776C707.698 375.776 708.276 375.992 708.728 376.424C709.195 376.84 709.431 377.368 709.437 378.008C709.442 378.632 709.214 379.16 708.754 379.592C708.309 380.008 707.735 380.216 707.031 380.216ZM709.082 381.608L709.192 394.999H705.088L704.978 381.608H709.082ZM720.215 381.464C721.783 381.464 723.035 381.976 723.972 383C724.924 384.007 725.407 385.399 725.422 387.175L725.486 394.999H721.406L721.346 387.727C721.339 386.831 721.101 386.135 720.633 385.639C720.165 385.143 719.539 384.895 718.755 384.895C717.971 384.895 717.349 385.143 716.889 385.639C716.429 386.135 716.203 386.831 716.21 387.727L716.27 394.999H712.166L712.056 381.608H716.16L716.175 383.384C716.586 382.792 717.142 382.328 717.843 381.992C718.545 381.64 719.335 381.464 720.215 381.464ZM733.315 381.416C734.259 381.416 735.084 381.608 735.791 381.992C736.514 382.376 737.071 382.88 737.46 383.504L737.444 381.608H741.548L741.658 394.975C741.668 396.207 741.429 397.319 740.941 398.311C740.469 399.319 739.732 400.119 738.729 400.711C737.742 401.303 736.504 401.599 735.016 401.599C733.032 401.599 731.42 401.127 730.181 400.183C728.941 399.255 728.227 397.991 728.037 396.391H732.093C732.226 396.903 732.533 397.303 733.015 397.591C733.498 397.895 734.091 398.047 734.795 398.047C735.643 398.047 736.313 397.799 736.805 397.303C737.313 396.823 737.563 396.047 737.554 394.975L737.538 393.079C737.143 393.703 736.596 394.215 735.895 394.615C735.194 394.999 734.372 395.191 733.428 395.191C732.324 395.191 731.321 394.911 730.421 394.351C729.52 393.775 728.801 392.967 728.265 391.927C727.744 390.871 727.478 389.655 727.467 388.279C727.456 386.903 727.702 385.695 728.205 384.655C728.725 383.616 729.43 382.816 730.321 382.256C731.213 381.696 732.211 381.416 733.315 381.416ZM737.499 388.303C737.491 387.279 737.196 386.471 736.615 385.879C736.05 385.287 735.36 384.991 734.544 384.991C733.728 384.991 733.034 385.287 732.463 385.879C731.908 386.455 731.634 387.255 731.643 388.279C731.651 389.303 731.938 390.119 732.503 390.727C733.084 391.319 733.782 391.615 734.598 391.615C735.414 391.615 736.1 391.319 736.655 390.727C737.226 390.135 737.507 389.327 737.499 388.303Z" fill="#2CBDE9"/>
<rect x="610.26" y="290.957" width="69.5021" height="69.5021" rx="13" fill="url(#paint8_linear_1608_164808)"/>
<path d="M658.01 327.769L657.952 327.737L644.953 320.667L630.896 328.243L631.01 344.53L645.153 352.074L659.21 344.467L659.095 328.369L658.01 327.769ZM655.61 329L644.981 334.808L634.238 328.968L644.953 323.192L655.61 329ZM633.067 330.862L644.01 336.797L644.095 348.98L633.153 343.141L633.067 330.862ZM653.21 345.13L649.953 346.897L646.267 348.886L646.181 336.67L656.895 330.799L656.981 343.078L653.21 345.13Z" fill="white"/>
<path opacity="0.5" d="M634.423 304.385C635.194 303.564 635.189 302.24 634.412 301.427C633.634 300.613 632.379 300.619 631.608 301.439C630.837 302.259 630.842 303.583 631.62 304.397C632.397 305.21 633.652 305.205 634.423 304.385Z" fill="white"/>
<path opacity="0.8" d="M640.365 307.244C641.136 306.424 641.131 305.099 640.353 304.286C639.576 303.472 638.321 303.478 637.549 304.298C636.778 305.118 636.784 306.443 637.561 307.256C638.338 308.07 639.594 308.064 640.365 307.244Z" fill="white"/>
<path d="M632.468 310.382C633.239 309.562 633.234 308.237 632.457 307.424C631.679 306.61 630.424 306.616 629.653 307.436C628.882 308.256 628.887 309.58 629.664 310.394C630.442 311.207 631.697 311.202 632.468 310.382Z" fill="white"/>
<path d="M639.993 311.375C640.062 310.222 639.176 309.225 638.014 309.147C636.852 309.07 635.854 309.941 635.784 311.094C635.715 312.247 636.601 313.245 637.763 313.322C638.926 313.4 639.924 312.528 639.993 311.375Z" fill="white"/>
<path opacity="0.2" d="M635.237 317.155C636.008 316.335 636.003 315.011 635.225 314.197C634.448 313.384 633.193 313.389 632.422 314.209C631.65 315.029 631.656 316.354 632.433 317.167C633.21 317.981 634.466 317.975 635.237 317.155Z" fill="white"/>
<path d="M653.429 304.124C654.2 303.304 654.195 301.979 653.418 301.166C652.64 300.352 651.385 300.358 650.614 301.178C649.843 301.998 649.848 303.323 650.625 304.136C651.403 304.95 652.658 304.944 653.429 304.124Z" fill="white"/>
<path d="M659.849 304.125C660.62 303.305 660.615 301.98 659.838 301.167C659.06 300.353 657.805 300.359 657.034 301.179C656.263 301.999 656.268 303.324 657.045 304.137C657.823 304.951 659.078 304.945 659.849 304.125Z" fill="white"/>
<path d="M653.459 310.382C654.23 309.562 654.224 308.237 653.447 307.424C652.67 306.61 651.414 306.616 650.643 307.436C649.872 308.256 649.877 309.58 650.655 310.394C651.432 311.207 652.687 311.202 653.459 310.382Z" fill="white"/>
<path d="M659.878 310.383C660.65 309.563 660.644 308.238 659.867 307.425C659.09 306.611 657.834 306.617 657.063 307.437C656.292 308.257 656.297 309.581 657.075 310.395C657.852 311.208 659.107 311.203 659.878 310.383Z" fill="white"/>
<path d="M652.253 317.218C653.345 317.135 654.163 316.075 654.08 314.85C653.997 313.624 653.044 312.698 651.952 312.78C650.86 312.863 650.042 313.923 650.125 315.148C650.208 316.374 651.161 317.3 652.253 317.218Z" fill="white"/>
<path d="M658.673 317.217C659.765 317.134 660.583 316.074 660.5 314.849C660.417 313.623 659.464 312.697 658.372 312.779C657.28 312.862 656.462 313.922 656.545 315.147C656.628 316.373 657.581 317.299 658.673 317.217Z" fill="white"/>
<path d="M657.462 302.92L652.521 309.162" stroke="white" stroke-width="1.5" stroke-linecap="round"/>
<path d="M657.462 302.92L652.521 309.162" stroke="white" stroke-width="1.5" stroke-linecap="round"/>
<path d="M652.741 302.92L657.776 309.162" stroke="white" stroke-width="1.5" stroke-linecap="round"/>
<path d="M652.741 302.92L657.776 309.162" stroke="white" stroke-width="1.5" stroke-linecap="round"/>
<path d="M657.525 309.427L652.584 315.702" stroke="white" stroke-width="1.5" stroke-linecap="round"/>
<path d="M657.525 309.427L652.584 315.702" stroke="white" stroke-width="1.5" stroke-linecap="round"/>
<path d="M652.773 309.427L657.809 315.702" stroke="white" stroke-width="1.5" stroke-linecap="round"/>
<path d="M652.773 309.427L657.809 315.702" stroke="white" stroke-width="1.5" stroke-linecap="round"/>
<path d="M647.613 309.926C647.739 309.793 647.739 309.56 647.613 309.428L645.536 307.236C645.41 307.104 645.189 307.104 645.064 307.236C644.938 307.369 644.938 307.602 645.064 307.734L646.92 309.693L645.095 311.652C644.969 311.785 644.969 312.017 645.095 312.15C645.221 312.283 645.441 312.283 645.567 312.15L647.613 309.926ZM641.696 310.025H647.361L647.361 309.328H641.696L641.696 310.025Z" fill="#FF8080"/>
<path d="M483.869 565.5C483.212 565.29 482.508 565.652 482.298 566.31L478.868 577.024C478.658 577.682 479.02 578.385 479.678 578.596C480.335 578.806 481.039 578.444 481.249 577.786L484.298 568.262L493.822 571.311C494.479 571.521 495.183 571.159 495.393 570.501C495.604 569.844 495.241 569.14 494.584 568.93L483.869 565.5ZM564.552 647.732L573.576 658.239L579.407 645.036L565.562 645.445L564.552 647.732ZM566.737 645.964C531.419 629.027 502.501 600.873 484.6 566.118L482.377 567.263C500.527 602.501 529.846 631.046 565.656 648.219L566.737 645.964Z" fill="#63C7E7"/>
<path d="M800.013 578.226L811.297 570.194L798.678 563.188L797.827 577.012L800.013 578.226ZM710.834 651.15C710.564 651.786 710.861 652.519 711.497 652.789L721.855 657.179C722.49 657.448 723.224 657.151 723.493 656.516C723.763 655.88 723.466 655.146 722.83 654.877L713.623 650.975L717.525 641.767C717.795 641.132 717.498 640.398 716.862 640.129C716.227 639.859 715.493 640.156 715.224 640.792L710.834 651.15ZM798.454 575.884C778.503 609.319 747.986 635.72 711.516 650.479L712.453 652.796C749.434 637.831 780.373 611.064 800.601 577.165L798.454 575.884Z" fill="#63C7E7"/>
<path d="M488.462 407.657L477.178 415.689L489.797 422.695L490.648 408.87L488.462 407.657ZM577.641 334.733C577.91 334.097 577.614 333.364 576.978 333.094L566.62 328.704C565.984 328.435 565.251 328.732 564.981 329.367C564.712 330.003 565.009 330.737 565.644 331.006L574.852 334.908L570.949 344.115C570.68 344.751 570.977 345.485 571.612 345.754C572.248 346.024 572.982 345.727 573.251 345.091L577.641 334.733ZM490.02 409.999C509.972 376.563 540.488 350.162 576.959 335.404L576.021 333.086C539.04 348.051 508.101 374.819 487.873 408.718L490.02 409.999Z" fill="#63C7E7"/>
<path d="M804.606 420.383C805.264 420.593 805.967 420.231 806.178 419.573L809.607 408.859C809.818 408.201 809.455 407.498 808.798 407.287C808.14 407.077 807.437 407.439 807.226 408.097L804.178 417.621L794.654 414.572C793.996 414.362 793.293 414.724 793.082 415.382C792.872 416.039 793.234 416.743 793.892 416.953L804.606 420.383ZM723.924 338.151L714.9 327.643L709.069 340.847L722.914 340.438L723.924 338.151ZM721.739 339.918C757.057 356.855 785.975 385.01 803.876 419.765L806.099 418.62C787.948 383.382 758.63 354.837 722.82 337.664L721.739 339.918Z" fill="#63C7E7"/>
<path d="M204.114 761.61L204.114 1079L634.773 1079L634.773 883.048L204.114 761.61Z" fill="url(#paint9_linear_1608_164808)" fill-opacity="0.1"/>
<path d="M1067.25 760.104L1067.25 1080L634.57 1080L634.569 882.576L1067.25 760.104Z" fill="url(#paint10_linear_1608_164808)" fill-opacity="0.1"/>
</g>
<defs>
<filter id="filter0_b_1608_164808" x="199.382" y="604.133" width="869.317" height="243.785" filterUnits="userSpaceOnUse" color-interpolation-filters="sRGB">
<feFlood flood-opacity="0" result="BackgroundImageFix"/>
<feGaussianBlur in="BackgroundImageFix" stdDeviation="2"/>
<feComposite in2="SourceAlpha" operator="in" result="effect1_backgroundBlur_1608_164808"/>
<feBlend mode="normal" in="SourceGraphic" in2="effect1_backgroundBlur_1608_164808" result="shape"/>
</filter>
<filter id="filter1_b_1608_164808" x="419.392" y="662.55" width="429.298" height="123.33" filterUnits="userSpaceOnUse" color-interpolation-filters="sRGB">
<feFlood flood-opacity="0" result="BackgroundImageFix"/>
<feGaussianBlur in="BackgroundImageFix" stdDeviation="2"/>
<feComposite in2="SourceAlpha" operator="in" result="effect1_backgroundBlur_1608_164808"/>
<feBlend mode="normal" in="SourceGraphic" in2="effect1_backgroundBlur_1608_164808" result="shape"/>
</filter>
<linearGradient id="paint0_linear_1608_164808" x1="634.709" y1="284" x2="634.709" y2="719.6" gradientUnits="userSpaceOnUse">
<stop stop-color="white" stop-opacity="0"/>
<stop offset="1" stop-color="white"/>
</linearGradient>
<linearGradient id="paint1_linear_1608_164808" x1="615" y1="545.5" x2="615.209" y2="665" gradientUnits="userSpaceOnUse">
<stop stop-color="white" stop-opacity="0"/>
<stop offset="1" stop-color="white"/>
</linearGradient>
<linearGradient id="paint2_linear_1608_164808" x1="645.011" y1="612.253" x2="645.011" y2="681.755" gradientUnits="userSpaceOnUse">
<stop stop-color="#40CAF3"/>
<stop offset="1" stop-color="#58C3E6" stop-opacity="0.6"/>
</linearGradient>
<linearGradient id="paint3_linear_1608_164808" x1="646.303" y1="463.553" x2="646.303" y2="521.915" gradientUnits="userSpaceOnUse">
<stop stop-color="#C0EAF7"/>
<stop offset="1" stop-color="#DDF7FF"/>
<stop offset="1" stop-color="#CAF0FC"/>
</linearGradient>
<linearGradient id="paint4_linear_1608_164808" x1="200.969" y1="445.978" x2="200.969" y2="515.48" gradientUnits="userSpaceOnUse">
<stop stop-color="#40CAF3"/>
<stop offset="1" stop-color="#58C3E6" stop-opacity="0.6"/>
</linearGradient>
<linearGradient id="paint5_linear_1608_164808" x1="1094.46" y1="446.179" x2="1094.46" y2="515.681" gradientUnits="userSpaceOnUse">
<stop stop-color="#40CAF3"/>
<stop offset="1" stop-color="#58C3E6" stop-opacity="0.6"/>
</linearGradient>
<linearGradient id="paint6_linear_1608_164808" x1="463.533" y1="446.222" x2="463.533" y2="515.724" gradientUnits="userSpaceOnUse">
<stop stop-color="#40CAF3"/>
<stop offset="1" stop-color="#58C3E6" stop-opacity="0.6"/>
</linearGradient>
<linearGradient id="paint7_linear_1608_164808" x1="831.894" y1="446.222" x2="831.894" y2="515.724" gradientUnits="userSpaceOnUse">
<stop stop-color="#40CAF3"/>
<stop offset="1" stop-color="#58C3E6" stop-opacity="0.6"/>
</linearGradient>
<linearGradient id="paint8_linear_1608_164808" x1="645.011" y1="290.957" x2="645.011" y2="360.459" gradientUnits="userSpaceOnUse">
<stop stop-color="#40CAF3"/>
<stop offset="1" stop-color="#58C3E6" stop-opacity="0.6"/>
</linearGradient>
<linearGradient id="paint9_linear_1608_164808" x1="388.797" y1="811.748" x2="396" y2="1037" gradientUnits="userSpaceOnUse">
<stop stop-color="#2CBDE9"/>
<stop offset="1" stop-color="#2CBDE9" stop-opacity="0"/>
</linearGradient>
<linearGradient id="paint10_linear_1608_164808" x1="787.5" y1="844" x2="818.5" y2="1050" gradientUnits="userSpaceOnUse">
<stop stop-color="#2CBDE9"/>
<stop offset="1" stop-color="#2CBDE9" stop-opacity="0"/>
</linearGradient>
<clipPath id="clip0_1608_164808">
<rect width="1280" height="1080" fill="white"/>
</clipPath>
<clipPath id="clip1_1608_164808">
<rect width="44.9445" height="44.9445" fill="white" transform="translate(1072.06 458.118)"/>
</clipPath>
</defs>
</svg>
